<svg width="1439" height="785" viewBox="0 0 1439 785" fill="none" xmlns="http://www.w3.org/2000/svg">
<mask id="mask0_4886_64093" style="mask-type:alpha" maskUnits="userSpaceOnUse" x="-1" y="-69" width="1440" height="468">
<rect x="-1" y="-69" width="1440" height="468" fill="#C4C4C4"/>
</mask>
<g mask="url(#mask0_4886_64093)">
<path d="M1651.14 77.4045C1649.65 77.7122 1648.55 78.8479 1648.21 80.2493L1603.59 77.2295C1603.58 77.0299 1603.57 76.8499 1603.53 76.651C1603.03 74.2056 1600.65 72.6107 1598.2 73.1092C1595.74 73.6077 1594.16 75.9996 1594.66 78.445C1594.7 78.6936 1594.79 78.9211 1594.87 79.1388L1542.72 107.565C1541.3 105.479 1538.73 104.34 1536.11 104.864C1533.83 105.327 1532.1 106.942 1531.36 108.977L1487.93 99.7063C1487.95 99.1953 1487.95 98.6752 1487.84 98.1483C1487.5 96.4684 1486.48 95.1001 1485.13 94.2526L1502.37 63.3977C1503.01 63.6175 1503.69 63.6955 1504.4 63.553C1506.45 63.1372 1507.78 61.1443 1507.35 59.0868C1506.94 57.039 1504.95 55.7117 1502.89 56.1275C1500.83 56.5433 1499.51 58.5464 1499.93 60.5942C1500.12 61.4986 1500.61 62.2532 1501.28 62.7822L1484.01 93.6984C1482.99 93.3305 1481.88 93.2058 1480.75 93.432C1477.48 94.0862 1475.37 97.265 1476.04 100.526C1476.05 100.595 1476.08 100.654 1476.1 100.714L1428.57 119.788C1426.78 116.543 1423.08 114.65 1419.25 115.422C1415.15 116.254 1412.31 119.856 1412.29 123.879L1364.19 128.023C1364.19 127.993 1364.19 127.963 1364.18 127.934C1363.49 124.524 1360.9 122.015 1357.72 121.236L1363.21 81.6206C1363.58 81.6188 1363.96 81.5869 1364.34 81.5148C1367.6 80.8506 1369.7 77.6821 1369.04 74.4213C1368.77 73.0893 1368.07 71.9711 1367.14 71.1405L1384.41 47.1375C1385.3 47.6095 1386.34 47.8066 1387.42 47.5923C1389.86 47.0941 1391.44 44.7225 1390.96 42.2765L1411.83 35.0878C1412.73 36.8602 1414.71 37.8978 1416.75 37.4826C1419.21 36.9841 1420.79 34.5925 1420.29 32.1371C1420.09 31.173 1419.59 30.3482 1418.92 29.7292L1434.68 7.22622C1435.39 7.56373 1436.21 7.69741 1437.05 7.53072C1439.09 7.11526 1440.42 5.11185 1440.01 3.06404C1439.59 1.01624 1437.59 -0.310699 1435.55 0.10444C1433.49 0.520215 1432.16 2.52362 1432.58 4.57143C1432.73 5.34689 1433.12 6.01505 1433.64 6.51854L1417.9 29.0217C1417.03 28.5694 1416 28.382 1414.95 28.5956C1412.5 29.0938 1410.93 31.4649 1411.4 33.9109L1390.53 41.0996C1389.64 39.3273 1387.65 38.2901 1385.6 38.7056C1383.16 39.1938 1381.56 41.5955 1382.06 44.0409C1382.25 44.9853 1382.73 45.8005 1383.38 46.4201L1366.1 70.4128C1364.88 69.7214 1363.43 69.4174 1361.94 69.7151C1361.06 69.893 1360.28 70.2583 1359.61 70.7497L1348.75 58.6297C1349.5 57.7153 1349.86 56.4933 1349.6 55.2409C1349.15 53.0242 1346.99 51.5921 1344.79 52.0426C1342.58 52.4931 1341.14 54.6501 1341.59 56.8569C1342.04 59.0737 1344.2 60.5058 1346.4 60.0552C1346.93 59.9484 1347.39 59.7435 1347.82 59.4699L1358.68 71.59C1357.44 72.9601 1356.83 74.8604 1357.22 76.8089C1357.68 79.0756 1359.35 80.7531 1361.42 81.3674L1355.93 120.993C1355.27 120.974 1354.59 121.005 1353.9 121.137C1349.19 122.088 1346.16 126.677 1347.11 131.379C1347.49 133.238 1348.44 134.828 1349.74 136.017L1320.38 175.123C1318.24 173.79 1315.6 173.224 1312.94 173.769C1311.63 174.031 1310.44 174.539 1309.38 175.223L1289.26 149.461C1290.57 148.089 1291.21 146.138 1290.8 144.139C1290.15 140.879 1286.97 138.769 1283.71 139.433C1280.45 140.087 1278.34 143.266 1279 146.526C1279.66 149.777 1282.85 151.887 1286.1 151.233C1286.73 151.113 1287.32 150.854 1287.85 150.557L1307.99 176.328C1305.47 178.68 1304.2 182.232 1304.92 185.851C1305.93 190.841 1310.41 194.23 1315.34 194.053L1325.61 258.569C1320.51 260.032 1317.32 265.166 1318.39 270.445C1318.81 272.522 1319.83 274.321 1321.23 275.707L1290.93 314.942C1289.23 313.996 1287.2 313.59 1285.13 314.006C1284.52 314.126 1283.93 314.325 1283.38 314.572L1268.89 291.773C1271.72 289.441 1273.2 285.662 1272.43 281.825C1271.53 277.391 1267.9 274.215 1263.65 273.691L1264.63 246.845C1264.86 246.818 1265.1 246.82 1265.34 246.773C1269.02 246.025 1271.41 242.438 1270.66 238.76C1269.91 235.081 1266.32 232.694 1262.65 233.442C1261.65 233.644 1260.76 234.062 1259.99 234.627L1246.88 220.878C1247.75 219.699 1248.16 218.186 1247.84 216.645C1247.39 214.448 1245.65 212.843 1243.58 212.459L1245.55 177.098C1245.78 177.081 1246.01 177.074 1246.24 177.026C1249.12 176.444 1250.99 173.633 1250.41 170.74C1249.83 167.857 1247.01 165.986 1244.13 166.578C1241.23 167.16 1239.37 169.981 1239.95 172.864C1240.4 175.061 1242.14 176.656 1244.22 177.04L1242.24 212.412C1242.01 212.429 1241.78 212.426 1241.54 212.474C1239.44 212.901 1237.88 214.512 1237.42 216.477L1218.74 214.461C1218.73 214.222 1218.71 213.982 1218.67 213.743C1218.17 211.288 1215.78 209.703 1213.33 210.201C1210.87 210.7 1209.29 213.091 1209.79 215.537C1210.29 217.992 1212.67 219.577 1215.13 219.088C1216.88 218.733 1218.18 217.401 1218.6 215.786L1237.27 217.793C1237.27 218.113 1237.3 218.432 1237.36 218.76C1237.95 221.643 1240.77 223.514 1243.66 222.931C1244.38 222.789 1245.03 222.508 1245.6 222.119L1258.71 235.858C1257.5 237.378 1256.91 239.388 1257.33 241.445C1257.9 244.279 1260.16 246.328 1262.85 246.782L1261.87 273.617C1261.37 273.643 1260.86 273.69 1260.35 273.796C1256.61 274.555 1253.78 277.247 1252.65 280.624L1233.25 276.04C1233.31 275.378 1233.32 274.708 1233.17 274.012C1232.43 270.334 1228.84 267.957 1225.16 268.704C1221.48 269.452 1219.1 273.029 1219.85 276.717C1220.6 280.395 1224.19 282.782 1227.87 282.035C1230.24 281.559 1232.05 279.89 1232.86 277.783L1252.25 282.368C1252.09 283.504 1252.09 284.684 1252.34 285.877C1253.46 291.424 1258.87 295.014 1264.41 293.896C1265.26 293.729 1266.04 293.444 1266.78 293.101L1281.28 315.93C1279.05 317.872 1277.88 320.881 1278.51 323.982C1278.58 324.37 1278.72 324.726 1278.84 325.092L1270.08 328.974C1269.11 327.434 1267.26 326.573 1265.37 326.953C1262.92 327.451 1261.33 329.843 1261.82 332.298C1262.32 334.754 1264.72 336.338 1267.17 335.84C1269.63 335.351 1271.21 332.949 1270.72 330.504C1270.7 330.395 1270.66 330.306 1270.63 330.207L1279.4 326.325C1280.87 329.04 1283.71 330.79 1286.83 330.781L1293.92 377.529C1289.62 378.746 1286.68 382.632 1286.59 386.987L1254.27 389.158C1254.26 389.088 1254.27 389.008 1254.25 388.929C1253.32 384.366 1248.87 381.416 1244.31 382.332C1242.66 382.664 1241.23 383.471 1240.12 384.557L1219.06 367.048C1219.96 365.619 1220.34 363.866 1219.98 362.076C1219.23 358.398 1215.65 356.022 1211.97 356.759C1208.29 357.507 1205.91 361.094 1206.66 364.772C1207.4 368.451 1210.99 370.838 1214.66 370.09C1215.94 369.83 1217.03 369.224 1217.91 368.406L1238.97 385.914C1237.77 387.713 1237.26 389.97 1237.72 392.267C1237.99 393.589 1238.58 394.751 1239.36 395.757L1223.43 409.541C1222.37 408.614 1220.9 408.161 1219.41 408.468C1216.87 408.98 1215.21 411.464 1215.74 414.018C1216.26 416.563 1218.73 418.215 1221.29 417.694C1223.83 417.172 1225.47 414.688 1224.96 412.143C1224.84 411.557 1224.6 411.024 1224.31 410.554L1240.25 396.749C1242.17 398.538 1244.88 399.422 1247.66 398.853C1251.55 398.069 1254.24 394.722 1254.4 390.915L1286.73 388.753C1286.75 388.903 1286.77 389.052 1286.79 389.192C1287.21 391.269 1288.25 393.067 1289.67 394.443L1249.87 447.568C1248.2 446.661 1246.23 446.283 1244.22 446.697C1240.73 447.399 1238.2 450.171 1237.6 453.472L1177.94 451.732C1177.91 451.392 1177.86 451.044 1177.78 450.696C1177.07 447.167 1174.59 444.465 1171.45 443.274L1174.2 434.192C1174.7 434.246 1175.22 434.249 1175.75 434.143C1178.52 433.574 1180.31 430.875 1179.76 428.102C1179.72 427.943 1179.66 427.805 1179.61 427.646L1188.98 422.055C1189.69 422.923 1190.82 423.387 1191.99 423.15C1193.67 422.806 1194.75 421.171 1194.42 419.49C1194.09 417.81 1192.44 416.722 1190.76 417.066C1189.08 417.409 1187.99 419.045 1188.33 420.725C1188.34 420.775 1188.36 420.814 1188.37 420.854L1179.05 426.413C1177.95 424.647 1175.85 423.644 1173.69 424.083C1173.32 424.155 1172.97 424.276 1172.62 424.427L1163.02 407.385C1164.54 406.235 1165.37 404.278 1164.98 402.28C1164.41 399.506 1161.71 397.711 1158.93 398.27C1156.16 398.828 1154.37 401.537 1154.93 404.311C1155.49 407.084 1158.19 408.889 1160.97 408.321C1161.27 408.261 1161.57 408.161 1161.86 408.042L1171.5 425.133C1170.07 426.299 1169.3 428.175 1169.69 430.114C1170.05 431.893 1171.31 433.264 1172.88 433.874L1170.16 442.865C1168.8 442.548 1167.36 442.504 1165.91 442.8C1164.05 443.18 1162.43 444.042 1161.14 445.223L1097.03 390.258C1098.03 388.726 1098.62 386.926 1098.66 385.024L1110.35 384.291C1111.05 387.47 1114.15 389.522 1117.35 388.87C1120.58 388.217 1122.67 385.079 1122.01 381.848C1121.36 378.617 1118.22 376.536 1114.99 377.19C1112.34 377.724 1110.49 379.944 1110.26 382.513L1098.54 383.237C1098.52 383.067 1098.5 382.897 1098.47 382.729C1098.16 381.188 1097.51 379.818 1096.62 378.646L1130.35 349.776C1132.28 351.595 1135.01 352.489 1137.81 351.919C1142.02 351.065 1144.82 347.194 1144.5 343.012L1168.97 339.3C1169.62 341.561 1171.89 342.979 1174.24 342.514C1176.7 342.015 1178.31 339.613 1177.81 337.138C1177.31 334.672 1174.9 333.078 1172.43 333.577C1170.26 334.016 1168.76 335.935 1168.78 338.066L1144.34 341.777C1143.38 337.625 1139.52 334.907 1135.35 335.29L1130.51 311.392C1132.89 310.475 1134.35 307.947 1133.83 305.363C1133.59 304.2 1132.98 303.209 1132.17 302.474L1144.13 285.344C1145.57 286.159 1147.29 286.505 1149.04 286.159C1152.89 285.375 1155.4 281.614 1154.61 277.757C1154.52 277.289 1154.37 276.834 1154.19 276.409L1175.27 265.963C1176.25 267.522 1178.11 268.403 1180.03 268.022C1182.49 267.523 1184.1 265.121 1183.6 262.645C1183.1 260.18 1180.69 258.586 1178.22 259.075C1175.75 259.574 1174.16 261.986 1174.65 264.451C1174.71 264.699 1174.78 264.927 1174.87 265.154L1153.77 275.622C1152.4 273.235 1149.71 271.82 1146.88 272.12L1142.33 249.634C1144.83 248.783 1146.41 246.202 1145.87 243.538C1145.54 241.928 1144.52 240.669 1143.18 239.941L1151.09 209.825C1151.38 209.845 1151.67 209.836 1151.98 209.776C1153.84 209.396 1155.05 207.577 1154.67 205.718C1154.29 203.849 1152.47 202.647 1150.6 203.027C1148.74 203.406 1147.53 205.215 1147.91 207.084C1148.13 208.178 1148.85 209.035 1149.78 209.486L1141.93 239.441C1141.18 239.245 1140.37 239.201 1139.56 239.366C1136.67 239.949 1134.8 242.77 1135.38 245.663C1135.93 248.347 1138.4 250.129 1141.07 249.894L1145.57 272.382C1142.08 273.434 1139.89 276.945 1140.62 280.584C1140.95 282.214 1141.83 283.577 1143.01 284.58L1131.04 301.72C1130 301.173 1128.77 300.942 1127.53 301.191C1124.63 301.774 1122.76 304.595 1123.34 307.478C1123.87 310.072 1126.19 311.829 1128.74 311.748L1133.58 335.636C1129.51 336.916 1126.98 341.049 1127.84 345.304C1128.08 346.457 1128.53 347.503 1129.16 348.413L1095.38 377.304C1093.65 375.718 1091.39 374.75 1088.97 374.658L1087.71 336.968C1087.87 336.943 1088.05 336.958 1088.21 336.922C1092.78 335.996 1095.73 331.55 1094.81 326.987C1093.89 322.424 1089.44 319.464 1084.88 320.39C1083.64 320.64 1082.53 321.165 1081.58 321.866L1061.39 299.698C1062.69 298.166 1063.31 296.095 1062.88 293.987C1062.29 291.105 1059.96 289.048 1057.21 288.635L1058.75 261.102C1058.9 261.087 1059.05 261.083 1059.2 261.058C1061.49 260.595 1062.97 258.377 1062.5 256.091C1062.44 255.772 1062.34 255.475 1062.2 255.19L1085.23 240.288C1086.2 241.378 1087.69 241.95 1089.22 241.642C1091.51 241.178 1092.99 238.95 1092.52 236.674C1092.27 235.421 1091.47 234.426 1090.44 233.849L1097.97 213.969C1098.33 214.027 1098.7 214.025 1099.08 213.953C1100.76 213.61 1101.85 211.974 1101.51 210.294C1101.17 208.614 1099.54 207.525 1097.85 207.869C1096.17 208.213 1095.08 209.849 1095.42 211.529C1095.6 212.393 1096.11 213.087 1096.81 213.526L1089.28 233.386C1088.71 233.263 1088.13 233.252 1087.54 233.371C1085.27 233.834 1083.79 236.062 1084.24 238.338C1084.31 238.656 1084.42 238.953 1084.54 239.24L1061.49 254.142C1060.53 253.052 1059.03 252.469 1057.51 252.788C1057.15 252.859 1056.82 252.99 1056.51 253.14L1041.01 230.492C1042.05 229.529 1042.58 228.071 1042.28 226.579C1041.94 224.9 1040.65 223.66 1039.08 223.3L1040.53 203.253C1040.6 203.241 1040.67 203.249 1040.74 203.237C1042.42 202.893 1043.51 201.258 1043.17 199.578C1042.82 197.898 1041.19 196.809 1039.51 197.153C1037.83 197.487 1036.74 199.122 1037.08 200.812C1037.32 201.995 1038.21 202.868 1039.28 203.174L1037.83 223.23C1037.66 223.245 1037.5 223.24 1037.32 223.276C1035.77 223.586 1034.6 224.733 1034.16 226.138L1011.77 222.59C1011.77 222.43 1011.75 222.27 1011.73 222.111C1011.38 220.431 1009.75 219.342 1008.07 219.686C1006.39 220.02 1005.3 221.665 1005.64 223.345C1005.98 225.026 1007.62 226.104 1009.3 225.77C1010.39 225.545 1011.22 224.788 1011.58 223.817L1033.96 227.365C1033.96 227.655 1033.97 227.945 1034.03 228.243C1034.5 230.529 1036.72 231.999 1039 231.546C1039.36 231.475 1039.69 231.345 1040 231.195L1055.5 253.842C1054.46 254.816 1053.93 256.274 1054.22 257.755C1054.57 259.465 1055.91 260.713 1057.5 261.052L1055.97 288.555C1055.6 288.567 1055.24 288.588 1054.86 288.67C1051.18 289.408 1048.8 293.005 1049.54 296.684C1050.28 300.362 1053.88 302.749 1057.56 302.001C1058.5 301.811 1059.35 301.434 1060.08 300.92L1080.26 323.068C1078.57 324.983 1077.73 327.621 1078.28 330.315C1079.05 334.123 1082.27 336.761 1085.95 337.024L1087.25 374.742C1087.03 374.779 1086.8 374.796 1086.58 374.843C1084.25 375.318 1082.27 376.562 1080.86 378.258L1061.81 365.008C1062.37 363.859 1062.6 362.542 1062.32 361.21C1061.67 357.979 1058.53 355.897 1055.3 356.541C1052.08 357.194 1049.99 360.342 1050.64 363.573C1051.3 366.793 1054.45 368.884 1057.67 368.231C1058.92 367.981 1059.99 367.347 1060.8 366.48L1079.83 379.731C1078.93 381.3 1078.46 383.117 1078.52 384.996L1004.31 397.516C1003.27 394.038 1000.47 391.485 997.09 390.653L999.929 372.703C1000.12 372.697 1000.33 372.691 1000.52 372.645C1002.8 372.181 1004.28 369.953 1003.82 367.676C1003.67 366.921 1003.31 366.262 1002.83 365.727L1015.26 350.583C1016.13 351.086 1017.16 351.304 1018.21 351.09C1020.5 350.627 1021.98 348.398 1021.51 346.122C1021.48 345.973 1021.42 345.835 1021.38 345.696L1033.11 340.57C1033.78 341.639 1035.05 342.239 1036.35 341.977C1038.03 341.633 1039.12 339.998 1038.77 338.318C1038.43 336.638 1036.79 335.55 1035.11 335.893C1033.43 336.237 1032.35 337.872 1032.69 339.552C1032.7 339.622 1032.73 339.691 1032.76 339.751L1021.01 344.877C1020.3 343.619 1018.99 342.811 1017.52 342.757L1014.95 321.548C1016.38 321.043 1017.26 319.554 1016.96 318.023C1016.79 317.188 1016.3 316.503 1015.64 316.064L1026.18 294.087C1026.66 294.242 1027.17 294.285 1027.71 294.178C1029.39 293.834 1030.48 292.199 1030.14 290.519C1029.79 288.839 1028.16 287.751 1026.49 288.094C1024.81 288.438 1023.72 290.073 1024.05 291.754C1024.23 292.588 1024.71 293.273 1025.37 293.713L1014.83 315.689C1014.36 315.544 1013.82 315.491 1013.3 315.598C1011.62 315.932 1010.53 317.577 1010.86 319.258C1011.14 320.63 1012.29 321.583 1013.61 321.711L1016.2 342.92C1014.12 343.527 1012.79 345.63 1013.23 347.787C1013.39 348.542 1013.75 349.191 1014.21 349.726L1001.79 364.88C1000.92 364.377 999.897 364.16 998.843 364.373C998.337 364.48 997.873 364.684 997.451 364.938L987.233 353.248C987.742 352.571 987.964 351.694 987.785 350.799C987.441 349.119 985.806 348.03 984.126 348.374C982.446 348.708 981.358 350.353 981.702 352.033C982.045 353.713 983.681 354.802 985.36 354.458C985.679 354.398 985.955 354.279 986.231 354.13L996.448 365.831C995.658 366.776 995.279 368.049 995.54 369.351C995.837 370.813 996.863 371.94 998.15 372.44L995.33 390.389C994.458 390.326 993.559 390.375 992.654 390.554C990.865 390.911 989.291 391.742 988.006 392.873L941.151 351.405C942.633 349.237 943.276 346.505 942.707 343.722C942.017 340.302 939.662 337.645 936.661 336.4L946.004 306.237C946.718 306.355 947.449 306.361 948.204 306.207C951.565 305.53 953.731 302.25 953.054 298.889C953.006 298.641 952.908 298.404 952.83 298.166L978.984 284.996C979.942 286.176 981.493 286.807 983.084 286.486C985.37 286.023 986.84 283.795 986.387 281.518C985.924 279.242 983.696 277.762 981.41 278.225C979.133 278.688 977.643 280.917 978.106 283.193C978.119 283.273 978.151 283.332 978.173 283.411L952.039 296.57C950.666 294.613 948.221 293.541 945.735 294.04C944.841 294.219 944.042 294.594 943.338 295.097L930.24 281.577C930.842 280.678 931.096 279.549 930.869 278.396C930.407 276.119 928.178 274.639 925.902 275.102C923.616 275.565 922.136 277.793 922.599 280.07C923.062 282.356 925.28 283.827 927.566 283.363C928.073 283.267 928.537 283.062 928.949 282.809L942.067 296.348C941.01 297.722 940.507 299.519 940.876 301.348C941.279 303.337 942.599 304.885 944.296 305.702L934.942 335.865C933.623 335.577 932.231 335.551 930.83 335.836C926.058 336.808 922.76 340.996 922.759 345.688L874.314 351.625C873.726 349.492 872.36 347.755 870.574 346.681L880.915 324.55C882.529 324.989 884.319 324.632 885.662 323.439C887.783 321.56 887.979 318.312 886.091 316.182C884.617 314.528 882.321 314.06 880.365 314.833L870.71 299.133C872.47 297.216 872.555 294.252 870.791 292.267C870.49 291.926 870.141 291.647 869.773 291.409L879.038 265.671C879.328 265.671 879.637 265.651 879.936 265.592C882.222 265.129 883.702 262.911 883.239 260.624C882.786 258.347 880.558 256.858 878.262 257.331C875.985 257.794 874.505 260.022 874.958 262.299C875.231 263.651 876.135 264.702 877.294 265.256L868.139 290.69C866.567 290.32 864.847 290.685 863.553 291.837C861.433 293.726 861.226 296.964 863.115 299.095C864.702 300.885 867.256 301.284 869.294 300.238L878.844 315.772C876.723 317.651 876.526 320.899 878.415 323.019C878.685 323.331 878.983 323.582 879.31 323.812L868.96 345.952C867.594 345.476 866.089 345.324 864.558 345.633C861.725 346.203 859.525 348.134 858.463 350.609L844.925 346.489C844.963 346.097 844.961 345.707 844.878 345.309C844.415 343.033 842.187 341.553 839.9 342.016C837.614 342.48 836.144 344.707 836.597 346.984C837.06 349.271 839.288 350.741 841.564 350.278C842.817 350.028 843.812 349.225 844.399 348.196L857.938 352.317C857.741 353.363 857.726 354.465 857.952 355.578C858.295 357.258 859.112 358.703 860.228 359.838L832.084 397.493C830.046 396.328 827.6 395.865 825.114 396.365C819.667 397.469 816.144 402.784 817.238 408.232C817.321 408.63 817.423 409.006 817.545 409.383L762.48 435.5C761.041 433.365 758.666 432 756.059 431.823L755.338 400.741C757.063 400.546 758.752 399.851 760.143 398.616C762.828 396.229 763.692 392.56 762.629 389.352L779.77 381.893C779.917 382.108 780.054 382.333 780.231 382.538C782.12 384.659 785.358 384.856 787.479 382.978C789.6 381.099 789.796 377.851 787.918 375.73C786.039 373.609 782.782 373.412 780.66 375.29C779.152 376.629 778.637 378.657 779.135 380.492L761.984 387.952C761.676 387.392 761.319 386.843 760.872 386.337C760.177 385.548 759.357 384.954 758.492 384.481L773.658 349.281C776.499 350.211 779.744 349.687 782.138 347.559C784.658 345.328 785.541 341.958 784.763 338.902L806.895 331.083C807.077 331.437 807.297 331.77 807.567 332.071C809.455 334.192 812.703 334.389 814.825 332.51C816.946 330.632 817.142 327.374 815.254 325.253C813.375 323.132 810.127 322.935 808.006 324.824C806.595 326.069 806.064 327.907 806.389 329.628L784.237 337.458C783.892 336.688 783.458 335.952 782.877 335.29C781.04 333.217 778.439 332.27 775.872 332.412L769.589 289.43C770.681 289.155 771.725 288.651 772.62 287.852C775.627 285.185 775.91 280.574 773.243 277.568C770.565 274.551 765.965 274.278 762.948 276.945C759.932 279.622 759.658 284.224 762.336 287.24C763.841 288.943 765.967 289.735 768.076 289.658L774.368 332.64C773.018 332.963 771.717 333.574 770.597 334.561C767.007 337.747 766.672 343.25 769.868 346.84C770.564 347.628 771.383 348.223 772.249 348.695L757.083 383.896C754.242 382.966 750.997 383.49 748.603 385.617C747.844 386.292 747.269 387.08 746.795 387.916L721.393 376.64C722.194 374.153 721.734 371.326 719.886 369.234C717.904 367.006 714.909 366.241 712.2 366.967L700.496 336.585C700.831 336.394 701.154 336.174 701.446 335.914C703.684 333.932 703.894 330.494 701.912 328.256C699.929 326.018 696.491 325.817 694.253 327.8C692.015 329.782 691.815 333.22 693.797 335.458C695.156 336.986 697.185 337.541 699.063 337.121L710.777 367.523C710.206 367.812 709.657 368.149 709.161 368.595C706.028 371.377 705.731 376.198 708.523 379.341C708.606 379.438 708.708 379.495 708.801 379.592L693.438 394.809C691.928 393.567 689.917 392.961 687.85 393.377C684.211 394.113 681.853 397.66 682.589 401.298C683.326 404.937 686.872 407.285 690.511 406.549C694.149 405.812 696.497 402.266 695.761 398.627C695.546 397.524 695.035 396.56 694.378 395.75L709.799 380.471C712.625 382.482 716.553 382.377 719.258 379.979C719.891 379.419 720.38 378.753 720.788 378.05L746.2 389.326C745.221 392.188 745.736 395.474 747.894 397.896C749.471 399.677 751.624 400.659 753.829 400.798L754.55 431.881C754.311 431.909 754.081 431.906 753.842 431.954C751.954 432.344 750.355 433.346 749.187 434.704L742.341 430.219C742.696 429.438 742.819 428.564 742.64 427.659C742.166 425.363 739.938 423.883 737.641 424.346C735.355 424.809 733.866 427.048 734.329 429.334C734.792 431.631 737.02 433.111 739.317 432.647C740.232 432.468 741.017 431.983 741.597 431.344L748.381 435.78C747.925 436.525 747.57 437.327 747.347 438.184L747.199 439.82L712.398 443.15C711.265 437.754 705.981 434.26 700.554 435.364C697.154 436.052 694.497 438.388 693.251 441.359L659.262 431.567L659.418 429.881C659.395 429.472 659.382 429.062 659.299 428.655C658.373 424.092 653.927 421.142 649.364 422.058C649.046 422.128 648.75 422.248 648.443 422.347L641.965 406.826C645.294 405.169 647.246 401.455 646.474 397.637C646.154 396.067 645.4 394.71 644.395 393.621L649.978 384.189C650.585 384.399 651.257 384.469 651.933 384.337C653.961 383.922 655.279 381.949 654.864 379.911C654.449 377.883 652.466 376.566 650.438 376.98C648.41 377.385 647.102 379.368 647.508 381.406C647.686 382.301 648.19 383.035 648.847 383.565L643.468 392.771C641.588 391.25 639.084 390.529 636.529 391.051C634.849 391.385 633.385 392.212 632.25 393.349L612.019 375.114C612.611 374.214 612.865 373.086 612.639 371.952C612.294 370.222 610.912 368.956 609.272 368.648L609.928 349.377C609.998 349.375 610.058 349.373 610.128 349.361C612.046 348.97 613.297 347.099 612.906 345.18C612.515 343.262 610.644 342.011 608.725 342.402C606.807 342.794 605.556 344.664 605.947 346.583C606.233 348.014 607.347 349.06 608.686 349.347L608.02 368.618C607.901 368.632 607.79 368.625 607.671 368.649C605.713 369.041 604.366 370.735 604.297 372.649L586.544 374.725C586.019 373.001 584.263 371.907 582.464 372.274C580.545 372.656 579.304 374.536 579.685 376.455C580.077 378.373 581.947 379.614 583.866 379.233C585.477 378.912 586.593 377.535 586.694 375.971L604.456 373.884C605.034 376.017 607.158 377.36 609.345 376.92C610.041 376.778 610.661 376.458 611.178 376.031L631.46 394.304C630.089 396.158 629.444 398.541 629.943 400.986C630.868 405.549 635.315 408.508 639.878 407.582C640.206 407.522 640.492 407.393 640.799 407.293L647.277 422.814C643.948 424.481 641.995 428.185 642.767 432.003C642.816 432.271 642.923 432.498 643.001 432.756L587.896 458.895C586.411 456.561 584.018 454.936 581.31 454.412L583.213 439.084C583.653 439.09 584.102 439.056 584.56 438.971C587.96 438.283 590.155 434.971 589.467 431.581C588.779 428.191 585.467 425.996 582.067 426.674C578.677 427.363 576.471 430.674 577.16 434.074C577.659 436.549 579.568 438.38 581.877 438.926L579.975 454.275C579.133 454.232 578.274 454.269 577.409 454.447C575.203 454.897 573.318 456.038 571.917 457.603L529.956 426.214C530.991 424.48 531.434 422.385 530.996 420.248C530.07 415.685 525.624 412.736 521.061 413.651C520.643 413.735 520.258 413.877 519.872 414.02L503.556 380.502C505.583 379.127 506.704 376.62 506.182 374.065C505.754 371.928 504.27 370.264 502.385 369.504L510.007 343.408C510.54 343.491 511.091 343.503 511.647 343.385C514.192 342.874 515.854 340.38 515.332 337.836C514.811 335.291 512.327 333.629 509.772 334.15C507.227 334.672 505.566 337.156 506.087 339.701C506.407 341.251 507.456 342.469 508.806 343.066L501.173 369.153C500.408 369.007 499.597 368.992 498.772 369.159C496.575 369.609 494.893 371.153 494.156 373.118L469.485 366.601C469.549 366.099 469.554 365.598 469.447 365.081C468.926 362.537 466.442 360.875 463.887 361.396C461.342 361.908 459.68 364.402 460.202 366.957C460.714 369.512 463.208 371.153 465.762 370.642C467.363 370.32 468.609 369.22 469.184 367.821L493.844 374.339C493.727 375.063 493.721 375.813 493.876 376.569C494.564 379.958 497.875 382.154 501.266 381.476C501.494 381.428 501.702 381.342 501.929 381.265L518.256 414.801C515.362 416.615 513.732 420.068 514.454 423.597C515.38 428.16 519.827 431.11 524.39 430.194C526.189 429.826 527.73 428.906 528.881 427.649L570.832 459.029C569.909 460.529 569.374 462.267 569.332 464.089L546.678 465.581C545.972 462.262 542.722 460.115 539.382 460.791C537.464 461.183 535.953 462.432 535.123 464.039L524.525 459.875C524.657 459.3 524.678 458.699 524.559 458.092C524.096 455.816 521.878 454.336 519.591 454.799C517.305 455.262 515.835 457.49 516.288 459.767C516.751 462.053 518.979 463.533 521.255 463.06C522.488 462.811 523.474 462.039 524.052 461.03L534.65 465.205C534.399 466.123 534.311 467.107 534.512 468.101C534.631 468.667 534.837 469.19 535.093 469.683L514.273 484.453C513.315 483.584 511.97 483.146 510.599 483.43C508.312 483.893 506.843 486.121 507.295 488.398C507.759 490.684 509.986 492.154 512.263 491.691C514.539 491.228 516.019 489 515.556 486.724C515.497 486.436 515.408 486.168 515.3 485.901L536.11 471.141C537.528 472.637 539.654 473.389 541.821 472.95C544.594 472.391 546.531 470.049 546.745 467.36L569.429 465.867C569.454 466.016 569.469 466.165 569.493 466.315C569.91 468.403 570.958 470.2 572.382 471.566L544.228 509.242C542.559 508.344 540.596 507.967 538.588 508.371C534.661 509.167 531.948 512.565 531.84 516.41L483.405 522.346C482.099 517.155 476.951 513.858 471.662 514.927C469.863 515.294 468.289 516.115 467.004 517.246L420.149 475.778C421.631 473.61 422.274 470.878 421.715 468.104C421.583 467.418 421.373 466.784 421.113 466.162L431.462 460.93C432.552 462.506 434.511 463.364 436.509 462.96C439.183 462.425 440.911 459.818 440.366 457.145C439.83 454.47 437.224 452.742 434.55 453.288C431.876 453.823 430.148 456.44 430.683 459.104C430.73 459.323 430.806 459.52 430.873 459.718L420.495 464.962C419.554 463.381 418.202 462.083 416.614 461.233L425.462 440.631C426.37 440.872 427.343 440.941 428.327 440.74C431.727 440.051 433.922 436.74 433.234 433.35C433.068 432.525 432.743 431.774 432.302 431.118L444.563 420.903C445.52 421.732 446.824 422.141 448.156 421.869C450.432 421.406 451.912 419.177 451.459 416.891C450.996 414.614 448.768 413.134 446.491 413.597C444.205 414.06 442.735 416.288 443.188 418.565C443.283 419.042 443.477 419.476 443.71 419.869L431.449 430.085C430.014 428.69 427.941 428.005 425.844 428.432C425.476 428.504 425.119 428.626 424.783 428.756L415.283 410.7C416.731 409.653 417.522 407.817 417.143 405.959C416.845 404.467 415.857 403.298 414.577 402.669L420.648 381.274C421.191 381.367 421.762 381.369 422.339 381.26C424.884 380.739 426.545 378.265 426.024 375.71C425.502 373.165 423.018 371.504 420.464 372.025C419.459 372.228 418.605 372.745 417.957 373.446L393.94 355.692C394.241 355.092 394.358 354.398 394.216 353.703C393.873 352.023 392.237 350.934 390.557 351.278C388.877 351.622 387.789 353.257 388.133 354.937C388.476 356.617 390.112 357.695 391.792 357.362C392.378 357.243 392.899 356.946 393.307 356.563L417.325 374.317C416.775 375.275 416.532 376.423 416.779 377.596C417.1 379.196 418.2 380.442 419.609 381.017L413.565 402.321C412.93 402.171 412.259 402.142 411.573 402.284C409.028 402.795 407.377 405.289 407.888 407.844C408.4 410.389 410.894 412.04 413.449 411.529C413.667 411.482 413.875 411.405 414.082 411.329L423.583 429.385C421.536 430.761 420.405 433.278 420.927 435.833C421.294 437.612 422.38 439.048 423.818 439.923L414.97 460.525C413.373 459.996 411.618 459.862 409.838 460.219C407.989 460.588 406.376 461.46 405.073 462.642L399.096 456.879C400.022 455.779 400.474 454.284 400.165 452.753C399.63 450.089 397.034 448.37 394.37 448.906C391.705 449.441 389.987 452.037 390.522 454.702C391.058 457.366 393.664 459.084 396.318 458.549C396.984 458.417 397.596 458.148 398.124 457.781L404.152 463.581C402.562 465.473 401.679 467.923 401.792 470.5L327.613 483.02C326.824 480.244 324.933 478.033 322.502 476.8L335.088 444.162C336.31 444.493 337.613 444.582 338.935 444.32C343.499 443.404 346.458 438.947 345.532 434.384C345.306 433.251 344.863 432.225 344.244 431.334L355.108 422.173C356.457 423.361 358.316 423.932 360.204 423.552C363.425 422.899 365.516 419.75 364.863 416.53C364.341 413.955 362.232 412.141 359.771 411.819L360.13 394.519C360.259 394.505 360.399 394.5 360.538 394.476C363.083 393.955 364.745 391.471 364.223 388.926C363.712 386.381 361.218 384.719 358.663 385.241C356.118 385.752 354.457 388.247 354.978 390.791C355.382 392.78 356.988 394.199 358.878 394.499L358.519 411.799C358.29 411.816 358.07 411.824 357.841 411.871C354.62 412.524 352.529 415.662 353.183 418.893C353.325 419.599 353.606 420.24 353.964 420.809L343.101 429.98C341.171 428.14 338.411 427.228 335.597 427.798C334.464 428.024 333.418 428.477 332.517 429.096L313.256 406.439C315.215 404.505 316.205 401.662 315.612 398.77C314.9 395.251 312.098 392.718 308.768 392.144L313.533 356.134C313.883 356.133 314.242 356.102 314.6 356.03C317.374 355.472 319.168 352.763 318.61 349.989C318.051 347.216 315.343 345.421 312.569 345.98C311.724 346.147 310.986 346.54 310.362 347.051L288.606 326.183C289.025 325.53 289.2 324.724 289.034 323.919C288.69 322.239 287.055 321.15 285.375 321.494C283.695 321.838 282.607 323.473 282.95 325.153C283.284 326.833 284.929 327.921 286.609 327.578C287.037 327.494 287.422 327.322 287.754 327.091L309.5 347.959C308.656 349.086 308.262 350.54 308.56 352.031C308.963 354.019 310.461 355.482 312.306 355.953L307.533 392.024C306.923 392.013 306.304 392.053 305.687 392.182C301.403 393.049 298.578 397.031 299.014 401.29L284.309 403.869C283.587 401.611 281.28 400.194 278.904 400.67C276.349 401.182 274.698 403.686 275.22 406.231C275.731 408.776 278.225 410.427 280.77 409.915C283.076 409.452 284.621 407.381 284.538 405.103L299.213 402.514C300.312 406.841 304.602 409.606 309.026 408.704C310.069 408.491 311.007 408.081 311.86 407.544L331.184 430.27C329.354 432.199 328.452 434.949 329.021 437.742C329.544 440.357 331.251 442.404 333.448 443.544L320.87 476.151C319.325 475.69 317.651 475.584 315.961 475.928C314.102 476.307 312.469 477.18 311.166 478.372L247.063 423.416C248.485 421.27 249.09 418.589 248.533 415.865C247.429 410.418 242.114 406.885 236.666 407.99C232.421 408.845 229.349 412.265 228.717 416.317L169.022 414.578C168.995 414.359 168.998 414.139 168.95 413.91C168.024 409.348 163.578 406.388 159.015 407.313C158.866 407.338 158.738 407.402 158.589 407.437L148.995 381.75C150.822 380.671 151.865 378.536 151.424 376.339C151.138 374.898 150.251 373.736 149.097 373.012L162.522 339.367C163.48 339.607 164.503 339.674 165.527 339.462C169.215 338.714 171.592 335.126 170.844 331.448C170.82 331.339 170.778 331.25 170.744 331.141L195.186 321.397C196.283 323.163 198.386 324.167 200.553 323.727C203.327 323.169 205.121 320.46 204.563 317.687C204.004 314.913 201.295 313.119 198.522 313.687C195.748 314.246 193.954 316.944 194.513 319.728C194.513 319.738 194.513 319.748 194.524 319.758L170.091 329.491C168.681 326.985 165.803 325.536 162.841 326.141C159.163 326.888 156.776 330.476 157.523 334.154C157.928 336.172 159.209 337.772 160.87 338.71L147.445 372.354C146.79 372.215 146.09 372.208 145.384 372.35C143.833 372.66 142.604 373.659 141.915 374.942L106.968 363.36C107.132 362.524 107.143 361.633 106.965 360.738C106.217 357.06 102.629 354.683 98.9512 355.421C98.633 355.481 98.3367 355.6 98.03 355.71L86.358 332.921C87.8722 331.772 88.7004 329.824 88.2968 327.836C87.7382 325.063 85.0298 323.268 82.2561 323.827C79.4825 324.385 77.688 327.094 78.2466 329.867C78.8052 332.641 81.5137 334.436 84.2873 333.877C84.4563 333.842 84.6042 333.777 84.7626 333.722L96.4339 356.491C94.2607 357.991 93.0757 360.681 93.6337 363.434C93.6569 363.534 93.7001 363.632 93.7233 363.731L69.1125 373.511C68.0156 371.745 65.9126 370.741 63.7455 371.181C60.9718 371.739 59.1773 374.448 59.736 377.222C60.2946 379.995 63.003 381.789 65.7767 381.231C68.5503 380.672 70.3448 377.963 69.7862 375.19C69.7859 375.18 69.7859 375.18 69.7755 375.17L94.3866 365.391C95.7871 367.898 98.6747 369.347 101.637 368.752C103.794 368.313 105.49 366.888 106.382 365.049L141.338 376.631C141.256 377.194 141.245 377.785 141.374 378.381C141.932 381.124 144.58 382.901 147.325 382.403L156.918 408.081C153.6 409.747 151.637 413.452 152.409 417.269C152.742 418.939 153.569 420.394 154.686 421.519L114.907 474.623C112.869 473.457 110.413 472.986 107.927 473.485C106.048 473.865 104.406 474.757 103.094 475.97L83.6027 458.342C84.7611 456.704 85.2848 454.616 84.8571 452.499C84.1691 449.119 81.3223 446.759 78.0425 446.503L76.6378 412.791C76.6975 412.779 76.7576 412.787 76.8173 412.775C80.4957 412.037 82.8824 408.44 82.1348 404.762C81.3872 401.084 77.7995 398.707 74.1212 399.444C70.4432 400.192 68.0562 403.78 68.8038 407.458C69.4101 410.47 71.9387 412.581 74.8587 412.848L76.2539 446.57C76.1543 446.584 76.064 446.576 75.9647 446.6C72.8929 447.218 70.6385 449.631 70.0602 452.521L27.9941 449.229C27.9752 448.95 27.9659 448.66 27.9066 448.371C27.2167 444.932 23.854 442.708 20.4243 443.397C16.9849 444.097 14.7606 447.45 15.4605 450.889C15.7811 452.47 16.6833 453.782 17.8827 454.684L9.14349 470.541C8.5681 470.379 7.95607 470.328 7.32989 470.458C5.22244 470.886 3.84727 472.94 4.27494 475.058C4.35759 475.455 4.50922 475.821 4.70001 476.155L-15.0415 493.993C-16.1802 493.109 -17.6745 492.686 -19.1955 492.995C-21.293 493.422 -22.8214 495.062 -23.2087 497.035L-42.3173 496.443C-42.3237 496.243 -42.3398 496.054 -42.3758 495.865C-42.8035 493.747 -44.8577 492.392 -46.9755 492.81C-49.083 493.237 -50.4481 495.292 -50.0205 497.409C-49.5931 499.517 -47.5286 500.882 -45.4211 500.454C-43.9398 500.157 -42.8445 499.052 -42.4577 497.689L-23.2793 498.278C-23.2713 498.527 -23.2533 498.777 -23.2053 499.026C-22.7435 501.272 -20.8924 502.854 -18.7239 503.085L-19.242 522.922C-19.3316 522.935 -19.412 522.927 -19.4913 522.95C-21.6087 523.377 -22.9739 525.432 -22.5462 527.549C-22.1189 529.657 -20.0543 531.022 -17.9469 530.594C-15.8394 530.167 -14.4742 528.112 -14.9019 525.995C-15.2231 524.394 -16.481 523.224 -18.0007 522.942L-17.4739 503.065C-17.3643 503.052 -17.2639 503.059 -17.1546 503.035C-14.381 502.476 -12.5865 499.768 -13.1451 496.994C-13.2648 496.378 -13.513 495.805 -13.8391 495.305L5.89323 477.488C6.73219 478.072 7.80094 478.327 8.88462 478.113C9.52081 477.982 10.0722 477.705 10.5401 477.32L31.2878 496.058C30.5126 497.163 30.1572 498.575 30.443 500.007C31.0016 502.78 33.7103 504.575 36.484 504.017C38.7207 503.565 40.3021 501.704 40.5435 499.545L59.5644 499.269C59.5654 499.299 59.5663 499.329 59.5673 499.359C59.9946 501.466 62.0492 502.831 64.1666 502.404C66.2741 501.976 67.6389 499.912 67.2119 497.814C66.7842 495.697 64.7297 494.332 62.6125 494.769C60.9623 495.102 59.7745 496.441 59.5446 498.019L40.514 498.305C40.5005 498.196 40.5073 498.095 40.4838 497.986C39.9252 495.212 37.2167 493.418 34.4431 493.976C33.5386 494.165 32.7617 494.591 32.1189 495.141L11.3714 476.403C11.9054 475.575 12.133 474.557 11.9196 473.514C11.7419 472.649 11.2886 471.923 10.6708 471.372L19.4213 455.556C20.505 455.971 21.7099 456.103 22.9426 455.854C25.4776 455.343 27.3462 453.382 27.8706 451.004L69.9371 454.305C69.9495 454.695 69.9722 455.095 70.0548 455.492C70.8854 459.578 74.8616 462.213 78.9472 461.382C80.2795 461.12 81.4301 460.492 82.3841 459.661L101.896 477.299C100.216 479.513 99.4574 482.409 100.051 485.352C101.037 490.223 105.385 493.546 110.184 493.413L117.278 540.201C113.958 541.217 111.67 544.111 111.357 547.473L84.4837 547.809C84.4599 547.69 84.4658 547.56 84.4419 547.441C83.6944 543.763 80.1067 541.385 76.4283 542.123C75.6232 542.289 74.8832 542.613 74.2156 543.014L65.9067 532.193C66.485 531.505 66.7656 530.575 66.565 529.621C66.2319 527.961 64.6068 526.882 62.9465 527.215C61.2862 527.548 60.2075 529.173 60.5406 530.833C60.8737 532.494 62.4988 533.573 64.1588 533.23C64.3974 533.182 64.625 533.105 64.8417 532.998L73.1403 543.809C71.469 545.363 70.6133 547.711 71.1003 550.117C71.2083 550.684 71.4152 551.207 71.651 551.7L44.3957 569.538C43.3095 568.422 41.7209 567.862 40.0907 568.194C38.1522 568.586 36.75 570.112 36.3982 571.944L10.7699 570.84C10.7693 570.82 10.7683 570.79 10.7577 570.77C10.4246 569.11 8.79942 568.031 7.13915 568.364C5.47888 568.697 4.40011 570.322 4.7332 571.983C5.0663 573.643 6.69146 574.722 8.35173 574.389C9.5347 574.151 10.4071 573.262 10.7025 572.172L36.3605 573.276C36.3753 573.425 36.3704 573.585 36.4055 573.744C36.9268 576.289 39.4007 577.941 41.9554 577.42C44.5001 576.898 46.1522 574.424 45.6405 571.869C45.5809 571.571 45.4921 571.294 45.3732 571.017L72.6388 553.18C74.197 554.981 76.6285 555.934 79.1135 555.425C82.0561 554.831 84.1399 552.403 84.4898 549.57L111.363 549.234C111.39 549.463 111.387 549.693 111.435 549.922C111.767 551.552 112.563 552.978 113.639 554.094L83.3337 593.339C81.2227 592.086 78.6752 591.577 76.0805 592.099C70.5337 593.227 66.944 598.634 68.0609 604.171L28.0178 616.633C27.9962 616.584 27.9949 616.544 27.9733 616.495C26.2694 612.947 22.0097 611.452 18.4519 613.146C17.2497 613.725 16.3074 614.616 15.62 615.648L-27.503 594.271C-27.0591 592.816 -27.1106 591.197 -27.8281 589.719C-29.3284 586.595 -33.072 585.284 -36.1962 586.774C-39.3203 588.264 -40.641 592.028 -39.141 595.142C-39.0765 595.28 -38.9828 595.397 -38.9087 595.525L-70.6922 620.09C-72.5236 618.508 -75.1895 618.052 -77.5152 619.167C-80.639 620.667 -81.9603 624.411 -80.46 627.535C-78.9597 630.659 -75.206 631.97 -72.0919 630.48C-68.9681 628.98 -67.6571 625.226 -69.1471 622.112C-69.2546 621.875 -69.4112 621.67 -69.5481 621.454L-37.8233 596.931C-35.9862 598.694 -33.2072 599.245 -30.7732 598.077C-29.7191 597.563 -28.8836 596.787 -28.2826 595.867L14.7896 617.215C14.1941 618.935 14.2457 620.874 15.0924 622.638C15.6066 623.702 16.354 624.549 17.2355 625.211L3.91652 648.368C2.80404 647.993 1.55435 648.023 0.411155 648.569C-1.8948 649.673 -2.86658 652.456 -1.76252 654.762C-0.65814 657.078 2.11434 658.05 4.41999 656.936C6.73563 655.821 7.70806 653.059 6.59368 650.744C6.31468 650.152 5.91849 649.654 5.45538 649.249L18.7747 626.103C20.59 626.865 22.6922 626.898 24.6038 625.977C27.5502 624.562 29.0595 621.383 28.5113 618.309L68.5551 605.856C69.2308 607.596 70.3482 609.071 71.7642 610.176L63.3081 623.613C62.1534 623.169 60.8328 623.171 59.6303 623.74C57.3247 624.854 56.3524 627.626 57.4564 629.932C58.5605 632.238 61.3433 633.22 63.6493 632.116C65.9549 631.002 66.937 628.229 65.8229 625.923C65.5659 625.391 65.2214 624.942 64.8192 624.565L73.2565 611.169C74.8241 612.01 76.6087 612.433 78.4674 612.364L88.7381 676.879C84.366 678.139 81.4009 682.106 81.3222 686.54C77.9974 686.756 74.7426 686.97 72.1062 687.124C72.0952 687.095 72.1046 687.075 72.0933 687.035C71.4393 683.784 68.2606 681.674 64.9998 682.328C61.7389 682.983 59.6289 686.161 60.2932 689.422C60.9575 692.682 64.1265 694.793 67.3873 694.139C70.0116 693.605 71.8634 691.435 72.1429 688.904C74.8295 688.759 78.1245 688.543 81.4493 688.327C81.4737 688.467 81.4883 688.616 81.5128 688.756C81.9649 691.012 83.1364 692.926 84.7225 694.346L55.3637 733.451C53.5686 732.378 51.3923 731.907 49.1756 732.358C45.0997 733.178 42.2817 736.74 42.219 740.734L-5.90369 744.869C-5.90369 744.869 -5.90368 744.869 -5.904 744.859C-6.85435 740.157 -11.4337 737.112 -16.1458 738.062C-17.6965 738.382 -19.0438 739.115 -20.1533 740.091L-42.0687 719.869C-41.1893 718.58 -40.811 716.948 -41.1438 715.297C-41.7981 712.036 -44.9768 709.927 -48.2373 710.591C-51.4978 711.255 -53.5976 714.433 -52.9436 717.684C-52.2893 720.945 -49.1106 723.055 -45.8501 722.391C-44.8761 722.19 -44.0197 721.752 -43.2982 721.159L-21.3725 741.391C-22.8021 743.307 -23.4639 745.769 -22.9528 748.304C-22.8939 748.583 -22.796 748.83 -22.7078 749.087L-70.2246 768.151C-71.4837 766 -73.9943 764.769 -76.5889 765.292C-78.6964 765.719 -80.31 767.201 -81.0104 769.085L-124.437 759.823C-124.395 759.252 -124.404 758.672 -124.523 758.085C-125.224 754.596 -128.628 752.333 -132.117 753.045C-135.606 753.756 -137.859 757.15 -137.158 760.639C-137.074 761.077 -136.941 761.493 -136.778 761.888L-188.929 790.314C-189.943 788.936 -191.677 788.2 -193.457 788.557C-195.286 788.926 -196.641 790.36 -196.997 792.072L-241.606 789.051C-241.62 788.922 -241.614 788.802 -241.648 788.673C-242.063 786.625 -244.056 785.298 -246.114 785.713C-248.162 786.129 -249.489 788.122 -249.073 790.18C-248.658 792.228 -246.665 793.555 -244.607 793.139C-243.116 792.842 -242.012 791.696 -241.686 790.295L-197.067 793.315C-197.051 793.504 -197.045 793.694 -197.009 793.883C-196.511 796.338 -194.119 797.923 -191.674 797.425C-189.218 796.927 -187.633 794.535 -188.132 792.089C-188.18 791.841 -188.257 791.623 -188.344 791.396L-136.193 762.97C-134.776 765.055 -132.208 766.205 -129.584 765.661C-127.308 765.198 -125.568 763.582 -124.823 761.547L-81.3956 770.808C-81.4291 771.329 -81.4124 771.849 -81.3056 772.376C-80.9718 774.056 -79.9476 775.424 -78.6003 776.261L-95.8362 807.116C-96.4638 806.886 -97.1562 806.818 -97.8619 806.961C-99.9098 807.376 -101.237 809.369 -100.821 811.427C-100.406 813.475 -98.4027 814.802 -96.3548 814.387C-94.307 813.971 -92.9701 811.967 -93.3955 809.92C-93.5745 809.015 -94.0787 808.261 -94.7563 807.722L-77.4825 776.806C-76.4703 777.174 -75.3555 777.309 -74.2221 777.082C-70.9616 776.418 -68.8512 773.249 -69.5155 769.989C-69.5278 769.919 -69.5597 769.86 -69.5716 769.801L-22.0453 750.727C-20.271 753.972 -16.5587 755.864 -12.7313 755.092C-8.62574 754.261 -5.78912 750.659 -5.76725 746.636L42.3354 742.501C42.3363 742.531 42.3373 742.561 42.3383 742.591C43.0269 745.991 45.6285 748.509 48.7946 749.279L43.304 788.894C42.9339 788.896 42.5546 788.928 42.1767 789C38.9162 789.664 36.8061 792.833 37.4704 796.093C37.7429 797.425 38.439 798.544 39.3759 799.374L22.1019 823.377C21.2164 822.905 20.1696 822.708 19.1059 822.922C16.6606 823.42 15.0753 825.792 15.5635 828.238L-5.30847 835.416C-6.20536 833.644 -8.18924 832.607 -10.2271 833.022C-12.6824 833.52 -14.2673 835.912 -13.7691 838.357C-13.5683 839.321 -13.0718 840.146 -12.4014 840.775L-28.1423 863.278C-28.8637 862.931 -29.6782 862.807 -30.5233 862.974C-32.5712 863.389 -33.8981 865.383 -33.4824 867.441C-33.0669 869.488 -31.0734 870.825 -29.016 870.399C-26.9681 869.984 -25.6412 867.981 -26.0567 865.933C-26.2114 865.158 -26.5929 864.49 -27.1192 863.986L-11.3683 841.483C-10.4934 841.935 -9.46736 842.112 -8.42358 841.899C-5.97825 841.401 -4.40273 839.029 -4.88093 836.583L15.9905 829.395C16.887 831.157 18.8715 832.204 20.9193 831.789C23.3747 831.29 24.9593 828.899 24.4608 826.443C24.2706 825.499 23.7947 824.694 23.1447 824.074L40.419 800.082C41.6416 800.773 43.102 801.077 44.5832 800.779C45.458 800.601 46.237 800.236 46.9116 799.745L57.7832 811.864C57.0319 812.779 56.6708 814.001 56.9208 815.253C57.3717 817.47 59.5284 818.902 61.7351 818.452C63.9418 818.001 65.374 815.844 64.9334 813.637C64.4926 811.42 62.3256 809.989 60.1189 810.439C59.602 810.546 59.1288 810.761 58.7069 811.024L47.8452 798.904C49.0822 797.534 49.6917 795.624 49.2998 793.685C48.8377 791.429 47.1631 789.742 45.0924 789.127L50.5823 749.492C51.2436 749.521 51.9227 749.479 52.6088 749.348C57.3109 748.397 60.3565 743.818 59.4058 739.106C59.0264 737.247 58.0756 735.666 56.7767 734.467L86.1357 695.362C88.2793 696.694 90.9086 697.261 93.5825 696.715C94.8849 696.453 96.0794 695.945 97.1281 695.261L117.259 721.023C115.952 722.396 115.314 724.357 115.718 726.345C116.372 729.606 119.551 731.706 122.812 731.061C126.072 730.397 128.172 727.219 127.518 723.968C126.864 720.707 123.685 718.607 120.425 719.261C119.788 719.382 119.206 719.631 118.675 719.938L98.5339 694.166C101.05 691.814 102.328 688.262 101.602 684.634C100.593 679.653 96.112 676.254 91.185 676.431L80.9043 611.916C86.0006 610.463 89.1884 605.319 88.1197 600.04C87.7036 597.972 86.6753 596.164 85.2804 594.778L115.586 555.542C117.287 556.489 119.311 556.895 121.369 556.479C121.985 556.349 122.569 556.15 123.121 555.903L137.605 578.703C134.778 581.034 133.287 584.813 134.07 588.66C134.972 593.084 138.605 596.26 142.854 596.795L141.869 623.639C141.63 623.667 141.399 623.665 141.161 623.712C137.483 624.46 135.096 628.038 135.843 631.726C136.591 635.404 140.179 637.79 143.857 637.043C144.851 636.841 145.738 636.423 146.511 635.858L159.635 649.597C158.762 650.775 158.35 652.289 158.669 653.829C159.109 656.027 160.861 657.632 162.935 658.016L160.95 693.377C160.721 693.394 160.501 693.401 160.262 693.439C157.379 694.021 155.508 696.842 156.09 699.725C156.673 702.618 159.493 704.479 162.376 703.897C165.259 703.315 167.131 700.504 166.548 697.611C166.098 695.414 164.356 693.809 162.283 693.435L164.267 658.073C164.497 658.056 164.727 658.049 164.955 658.001C167.063 657.574 168.612 655.964 169.08 653.998L187.753 656.004C187.761 656.244 187.778 656.483 187.826 656.712C188.324 659.167 190.716 660.752 193.171 660.253C195.627 659.755 197.211 657.364 196.713 654.918C196.215 652.463 193.823 650.878 191.368 651.377C189.618 651.723 188.32 653.055 187.901 654.679L169.227 652.662C169.217 652.343 169.197 652.023 169.127 651.705C168.545 648.822 165.724 646.952 162.831 647.534C162.115 647.677 161.474 647.967 160.905 648.336L147.781 634.597C149.003 633.077 149.589 631.067 149.164 629.01C148.593 626.177 146.327 624.128 143.641 623.663L144.626 596.838C145.126 596.812 145.634 596.766 146.141 596.66C149.879 595.91 152.725 593.198 153.837 589.821L173.243 594.405C173.174 595.068 173.176 595.738 173.318 596.424C174.055 600.102 177.653 602.479 181.331 601.741C185.009 601.004 187.396 597.416 186.649 593.738C185.911 590.049 182.313 587.673 178.635 588.42C176.269 588.896 174.452 590.565 173.648 592.671L154.263 588.097C154.426 586.951 154.419 585.77 154.171 584.578C153.043 579.031 147.636 575.441 142.089 576.559C141.254 576.725 140.462 577.001 139.723 577.354L125.218 554.525C127.448 552.583 128.622 549.574 127.993 546.473C127.911 546.085 127.779 545.729 127.648 545.363L136.408 541.482C137.388 543.011 139.236 543.883 141.125 543.502C143.581 543.004 145.165 540.612 144.667 538.157C144.168 535.701 141.777 534.117 139.331 534.615C136.876 535.114 135.291 537.495 135.789 539.951C135.812 540.05 135.856 540.149 135.879 540.248L127.108 544.129C125.641 541.415 122.814 539.664 119.692 539.674L112.599 492.926C116.903 491.708 119.84 487.823 119.932 483.467L152.249 481.307C152.261 481.376 152.254 481.456 152.266 481.526C153.192 486.099 157.638 489.039 162.201 488.123C163.852 487.79 165.277 486.984 166.403 485.898L187.461 503.406C186.566 504.835 186.182 506.588 186.539 508.368C187.286 512.046 190.874 514.433 194.552 513.685C198.231 512.948 200.617 509.35 199.87 505.672C199.132 501.993 195.534 499.617 191.856 500.354C190.584 500.615 189.492 501.22 188.608 502.039L167.55 484.531C168.753 482.732 169.261 480.464 168.798 478.178C168.536 476.856 167.938 475.684 167.166 474.688L183.095 460.903C184.155 461.83 185.62 462.283 187.111 461.976C189.656 461.464 191.307 458.971 190.796 456.426C190.275 453.881 187.801 452.229 185.246 452.741C182.701 453.252 181.049 455.746 181.571 458.291C181.689 458.877 181.927 459.41 182.222 459.88L166.283 473.676C164.365 471.886 161.646 471.002 158.872 471.561C154.985 472.345 152.291 475.703 152.141 479.499L119.814 481.66C119.789 481.511 119.775 481.371 119.75 481.222C119.333 479.134 118.296 477.346 116.872 475.981L156.669 422.856C158.339 423.753 160.312 424.141 162.32 423.727C165.809 423.025 168.342 420.253 168.937 416.952L228.603 418.692C228.634 419.031 228.685 419.38 228.756 419.728C229.469 423.257 231.957 425.969 235.086 427.15L232.344 436.232C231.842 436.178 231.321 436.175 230.794 436.281C228.021 436.84 226.226 439.548 226.785 442.322C226.82 442.481 226.874 442.619 226.92 442.778L217.553 448.369C216.845 447.501 215.71 447.037 214.537 447.275C212.857 447.618 211.768 449.254 212.112 450.934C212.456 452.614 214.091 453.702 215.771 453.359C217.451 453.015 218.539 451.379 218.195 449.699C218.184 449.66 218.163 449.62 218.152 449.571L227.469 444.011C228.566 445.777 230.669 446.771 232.826 446.332C233.204 446.26 233.56 446.138 233.895 445.977L243.503 463.02C241.979 464.169 241.14 466.117 241.544 468.125C242.103 470.899 244.812 472.693 247.585 472.134C250.359 471.576 252.154 468.867 251.595 466.094C251.036 463.32 248.328 461.525 245.554 462.084C245.246 462.154 244.949 462.253 244.662 462.363L235.023 445.271C236.457 444.105 237.217 442.219 236.825 440.291C236.468 438.511 235.214 437.141 233.634 436.531L236.349 427.54C237.71 427.857 239.152 427.9 240.603 427.604C242.452 427.235 244.075 426.363 245.378 425.181L309.482 480.146C308.48 481.679 307.898 483.488 307.848 485.381L296.155 486.114C295.464 482.934 292.357 480.882 289.156 481.524C285.935 482.177 283.844 485.316 284.497 488.547C285.15 491.767 288.298 493.858 291.519 493.205C294.173 492.67 296.023 490.45 296.252 487.882L307.965 487.158C307.99 487.327 308.005 487.497 308.041 487.666C308.35 489.207 309.004 490.577 309.892 491.749L276.155 520.619C274.226 518.799 271.496 517.906 268.702 518.465C264.487 519.32 261.689 523.191 262.002 527.363L237.528 531.075C236.876 528.815 234.609 527.386 232.263 527.861C229.798 528.359 228.193 530.762 228.693 533.237C229.191 535.703 231.603 537.297 234.069 536.798C236.236 536.359 237.736 534.45 237.718 532.309L262.162 528.599C263.115 532.751 266.983 535.468 271.143 535.076L275.976 558.974C273.594 559.89 272.134 562.418 272.657 565.003C272.894 566.166 273.506 567.147 274.32 567.891L262.36 585.021C260.913 584.207 259.201 583.861 257.452 584.217C253.594 584.99 251.093 588.762 251.876 592.609C251.971 593.076 252.116 593.532 252.289 593.956L231.221 604.403C230.241 602.843 228.372 601.952 226.463 602.344C223.998 602.842 222.394 605.254 222.893 607.72C223.392 610.185 225.804 611.779 228.269 611.28C230.734 610.781 232.339 608.379 231.84 605.914C231.792 605.665 231.705 605.438 231.617 605.211L252.714 594.743C254.091 597.13 256.768 598.546 259.61 598.245L264.158 620.732C261.654 621.582 260.085 624.163 260.621 626.828C260.942 628.438 261.973 629.696 263.307 630.434L255.402 660.541C255.112 660.53 254.812 660.53 254.513 660.589C252.644 660.959 251.442 662.788 251.821 664.647C252.2 666.506 254.01 667.719 255.879 667.339C257.738 666.96 258.95 665.14 258.571 663.282C258.356 662.188 257.629 661.34 256.694 660.88L264.553 630.924C265.3 631.121 266.112 631.165 266.917 630.999C269.81 630.417 271.681 627.595 271.099 624.713C270.553 622.029 268.075 620.247 265.41 620.472L260.912 597.983C264.4 596.932 266.599 593.41 265.863 589.782C265.531 588.141 264.647 586.779 263.464 585.776L275.424 568.637C276.472 569.183 277.7 569.414 278.953 569.164C281.846 568.582 283.717 565.761 283.134 562.868C282.611 560.273 280.284 558.527 277.725 558.598L272.892 534.71C276.953 533.43 279.493 529.307 278.626 525.032C278.39 523.879 277.936 522.843 277.307 521.933L311.084 493.042C312.816 494.637 315.077 495.596 317.501 495.689L318.753 533.378C318.583 533.403 318.423 533.398 318.254 533.434C313.691 534.36 310.732 538.806 311.658 543.369C312.583 547.932 317.03 550.892 321.603 549.966C322.845 549.716 323.949 549.191 324.907 548.49L345.094 570.658C343.802 572.179 343.177 574.251 343.605 576.368C344.187 579.251 346.524 581.307 349.268 581.72L347.735 609.253C347.585 609.268 347.436 609.272 347.286 609.297C345 609.76 343.53 611.989 343.983 614.265C344.053 614.583 344.153 614.89 344.281 615.166L321.245 630.068C320.279 628.978 318.79 628.405 317.259 628.714C314.983 629.177 313.503 631.395 313.966 633.692C314.216 634.944 315.009 635.939 316.048 636.516L308.507 656.397C308.145 656.349 307.775 656.33 307.397 656.412C305.717 656.756 304.629 658.391 304.972 660.071C305.316 661.751 306.951 662.83 308.631 662.496C310.312 662.162 311.4 660.517 311.056 658.837C310.879 657.972 310.366 657.278 309.671 656.83L317.202 636.97C317.757 637.092 318.338 637.104 318.934 636.985C321.22 636.522 322.69 634.304 322.237 632.017C322.167 631.699 322.068 631.402 321.938 631.116L344.985 616.214C345.951 617.304 347.44 617.877 348.971 617.568C349.328 617.497 349.654 617.366 349.97 617.216L365.469 639.864C364.43 640.827 363.896 642.295 364.193 643.776C364.537 645.456 365.837 646.695 367.409 647.045L365.957 667.092C365.887 667.104 365.817 667.097 365.748 667.119C364.068 667.453 362.979 669.098 363.313 670.778C363.657 672.458 365.292 673.546 366.972 673.202C368.652 672.869 369.741 671.223 369.397 669.543C369.159 668.37 368.281 667.498 367.2 667.182L368.652 647.126C368.822 647.111 368.992 647.115 369.161 647.079C370.712 646.77 371.886 645.632 372.331 644.217L394.716 647.766C394.721 647.925 394.736 648.075 394.761 648.244C395.105 649.924 396.741 651.013 398.42 650.669C400.1 650.325 401.189 648.7 400.845 647.02C400.501 645.34 398.866 644.252 397.186 644.586C396.103 644.81 395.276 645.577 394.907 646.539L372.542 642.99C372.543 642.7 372.514 642.41 372.464 642.112C372.002 639.835 369.774 638.365 367.497 638.818C367.139 638.89 366.813 639.02 366.507 639.16L351.018 616.512C352.058 615.549 352.592 614.091 352.294 612.599C351.949 610.899 350.619 609.641 349.017 609.302L350.552 581.799C350.911 581.778 351.281 581.766 351.649 581.695C355.327 580.947 357.704 577.369 356.966 573.691C356.219 570.013 352.631 567.626 348.953 568.373C348.019 568.563 347.16 568.941 346.426 569.454L326.25 547.296C327.95 545.381 328.776 542.743 328.23 540.049C327.459 536.252 324.253 533.603 320.563 533.34L319.26 495.623C319.479 495.596 319.699 495.569 319.927 495.521C322.263 495.047 324.235 493.813 325.651 492.107L344.693 505.357C344.129 506.496 343.901 507.814 344.174 509.156C344.827 512.386 347.975 514.467 351.196 513.814C354.417 513.161 356.508 510.023 355.854 506.793C355.201 503.572 352.053 501.481 348.833 502.134C347.58 502.384 346.51 503.028 345.697 503.885L326.665 490.644C327.566 489.075 328.038 487.259 327.988 485.379L402.197 472.849C403.238 476.327 406.041 478.879 409.419 479.722L406.58 497.672C406.38 497.678 406.18 497.695 405.981 497.731C403.695 498.194 402.225 500.422 402.688 502.698C402.842 503.454 403.193 504.103 403.671 504.648L391.237 519.791C390.38 519.288 389.343 519.072 388.289 519.295C386.013 519.758 384.533 521.976 384.996 524.263C385.021 524.412 385.085 524.55 385.13 524.689L373.397 529.815C372.733 528.746 371.463 528.146 370.161 528.408C368.48 528.741 367.392 530.387 367.736 532.066C368.07 533.747 369.715 534.825 371.395 534.491C373.075 534.157 374.164 532.522 373.82 530.842C373.808 530.773 373.776 530.703 373.754 530.644L385.486 525.518C386.207 526.775 387.513 527.584 388.976 527.637L391.562 548.836C390.128 549.342 389.245 550.831 389.554 552.372C389.72 553.207 390.213 553.892 390.867 554.331L380.332 576.308C379.847 576.153 379.325 576.11 378.798 576.216C377.118 576.56 376.03 578.196 376.374 579.876C376.717 581.555 378.352 582.634 380.033 582.3C381.713 581.967 382.801 580.331 382.458 578.651C382.291 577.816 381.799 577.132 381.144 576.692L391.68 554.715C392.165 554.87 392.686 554.913 393.213 554.806C394.893 554.473 395.982 552.827 395.638 551.147C395.364 549.775 394.223 548.821 392.898 548.683L390.311 527.475C392.403 526.878 393.717 524.775 393.288 522.608C393.133 521.852 392.772 521.204 392.305 520.658L404.729 505.514C405.595 506.017 406.622 506.235 407.676 506.021C408.183 505.915 408.647 505.71 409.069 505.456L419.287 517.146C418.778 517.833 418.546 518.701 418.734 519.595C419.078 521.275 420.714 522.364 422.393 522.02C424.073 521.676 425.162 520.041 424.818 518.361C424.484 516.681 422.839 515.593 421.159 515.936C420.841 516.006 420.565 516.126 420.299 516.264L410.081 504.564C410.871 503.608 411.251 502.345 410.989 501.043C410.693 499.581 409.666 498.454 408.38 497.954L411.209 480.005C412.081 480.057 412.98 480.018 413.885 479.84C415.675 479.482 417.249 478.652 418.534 477.52L465.388 518.979C463.907 521.147 463.263 523.879 463.822 526.662C464.512 530.082 466.868 532.749 469.869 533.984L460.515 564.147C459.801 564.029 459.07 564.023 458.325 564.176C454.965 564.854 452.798 568.125 453.475 571.485C453.523 571.734 453.621 571.971 453.699 572.208L427.545 585.378C426.587 584.208 425.036 583.567 423.445 583.888C421.159 584.351 419.689 586.579 420.152 588.855C420.605 591.132 422.833 592.612 425.119 592.149C427.406 591.686 428.885 589.457 428.423 587.181C428.41 587.101 428.378 587.043 428.356 586.963L454.49 573.804C455.863 575.761 458.308 576.834 460.793 576.324C461.688 576.146 462.496 575.77 463.191 575.267L476.288 588.787C475.686 589.687 475.422 590.815 475.659 591.968C476.122 594.245 478.35 595.725 480.637 595.262C482.913 594.799 484.393 592.581 483.93 590.294C483.467 588.008 481.239 586.538 478.962 586.99C478.455 587.097 477.992 587.302 477.58 587.555L464.462 574.016C465.518 572.642 466.021 570.845 465.653 569.016C465.249 567.028 463.929 565.479 462.232 564.663L471.586 534.499C472.896 534.788 474.297 534.813 475.699 534.528C480.471 533.566 483.769 529.368 483.77 524.686L532.215 518.749C532.803 520.882 534.169 522.619 535.954 523.693L525.614 545.813C524 545.384 522.22 545.731 520.867 546.925C518.746 548.804 518.549 552.051 520.428 554.173C521.901 555.837 524.207 556.294 526.154 555.521L535.809 571.222C534.049 573.139 533.964 576.113 535.728 578.098C536.039 578.438 536.388 578.717 536.746 578.955L527.481 604.704C527.191 604.703 526.882 604.723 526.583 604.783C524.307 605.245 522.817 607.464 523.29 609.75C523.753 612.036 525.981 613.506 528.257 613.043C530.544 612.58 532.024 610.352 531.561 608.075C531.288 606.733 530.394 605.672 529.235 605.118L538.39 579.684C539.962 580.054 541.681 579.689 542.985 578.537C545.106 576.648 545.303 573.4 543.424 571.279C541.837 569.488 539.282 569.08 537.245 570.135L527.695 554.602C529.816 552.713 530.013 549.475 528.124 547.354C527.854 547.043 527.546 546.792 527.229 546.562L537.578 524.421C538.954 524.898 540.45 525.05 541.981 524.741C544.814 524.17 547.014 522.24 548.066 519.765L561.604 523.885C561.576 524.277 561.569 524.667 561.651 525.065C562.114 527.341 564.342 528.821 566.619 528.358C568.905 527.895 570.375 525.667 569.922 523.39C569.459 521.104 567.231 519.624 564.955 520.097C563.702 520.347 562.697 521.139 562.12 522.178L548.581 518.058C548.778 517.011 548.793 515.91 548.568 514.806C548.234 513.126 547.407 511.672 546.291 510.547L574.425 472.891C576.464 474.057 578.909 474.519 581.395 474.02C586.842 472.915 590.365 467.601 589.271 462.153C589.188 461.755 589.076 461.378 588.954 461.002L644.02 434.885C645.458 437.02 647.833 438.385 650.44 438.562L651.171 469.644C649.446 469.839 647.757 470.524 646.366 471.769C643.681 474.155 642.817 477.825 643.89 481.032L626.749 488.492C626.602 488.267 626.465 488.051 626.278 487.847C624.4 485.725 621.152 485.529 619.031 487.407C616.909 489.286 616.713 492.534 618.591 494.665C620.48 496.786 623.728 496.983 625.849 495.104C627.357 493.755 627.873 491.728 627.374 489.903L644.515 482.433C644.823 482.993 645.181 483.552 645.627 484.048C646.322 484.837 647.142 485.431 648.017 485.903L632.851 521.104C630.01 520.174 626.765 520.698 624.362 522.825C621.842 525.067 620.969 528.436 621.746 531.493L599.614 539.313C599.423 538.968 599.213 538.635 598.933 538.324C597.054 536.202 593.806 536.006 591.685 537.884C589.564 539.763 589.367 543.011 591.246 545.132C593.134 547.253 596.382 547.449 598.503 545.571C599.904 544.326 600.446 542.487 600.121 540.767L622.263 532.948C622.618 533.717 623.041 534.453 623.633 535.115C625.47 537.188 628.072 538.145 630.628 537.994L636.921 580.975C635.839 581.249 634.784 581.753 633.889 582.552C630.873 585.219 630.6 589.831 633.267 592.847C635.945 595.863 640.556 596.137 643.562 593.46C646.568 590.793 646.852 586.181 644.174 583.165C642.669 581.462 640.543 580.669 638.434 580.747L632.142 537.765C633.492 537.442 634.793 536.84 635.902 535.845C639.503 532.658 639.827 527.155 636.642 523.565C635.946 522.787 635.127 522.182 634.261 521.709L649.437 486.508C652.278 487.438 655.523 486.914 657.917 484.787C658.676 484.113 659.261 483.324 659.724 482.478L685.126 493.755C684.325 496.242 684.775 499.068 686.633 501.16C688.615 503.398 691.611 504.153 694.319 503.427L706.023 533.809C705.689 534 705.366 534.21 705.074 534.48C702.836 536.472 702.626 539.901 704.618 542.138C706.6 544.376 710.039 544.587 712.276 542.605C714.514 540.622 714.725 537.184 712.743 534.946C711.383 533.408 709.354 532.852 707.487 533.282L695.772 502.88C696.344 502.592 696.893 502.254 697.389 501.818C700.532 499.026 700.819 494.215 698.037 491.072C695.246 487.929 690.434 487.642 687.291 490.424C686.659 490.994 686.17 491.65 685.762 492.353L660.36 481.078C661.329 478.215 660.824 474.929 658.665 472.497C657.078 470.716 654.926 469.735 652.73 469.595L651.999 438.512C652.239 438.485 652.469 438.487 652.707 438.439C655.391 437.894 657.486 436.116 658.593 433.82L692.603 443.621C692.529 444.124 692.485 444.635 692.491 445.145L692.462 445.497C692.48 446.056 692.529 446.635 692.647 447.211C693.751 452.659 699.066 456.182 704.514 455.077C705.836 454.815 707.04 454.297 708.089 453.603L716.326 464.996C715.398 466.006 714.933 467.432 715.229 468.883C715.668 471.03 717.575 472.49 719.685 472.453L723.072 492.085C720.953 492.773 719.632 494.946 720.083 497.183C720.57 499.599 722.921 501.154 725.337 500.667C727.753 500.18 729.309 497.829 728.821 495.413C728.383 493.276 726.495 491.816 724.395 491.843L721.008 472.201C722.522 471.692 723.623 470.446 723.956 468.955L736.127 469.437C736.128 469.457 736.129 469.487 736.13 469.507C736.474 471.197 738.119 472.295 739.809 471.951C741.499 471.607 742.587 469.962 742.253 468.272C741.909 466.582 740.264 465.494 738.574 465.828C737.371 466.076 736.479 466.985 736.185 468.105L724.023 467.612C724.008 467.443 724.013 467.282 723.977 467.113C723.49 464.698 721.139 463.142 718.723 463.629C718.385 463.69 718.079 463.799 717.773 463.939L709.483 452.468C710.891 451.122 711.876 449.39 712.326 447.484C712.344 447.414 712.381 447.343 712.389 447.272L712.397 447.212C712.509 446.649 712.571 446.076 712.583 445.495L747.384 442.165C748.483 446.492 752.772 449.237 757.196 448.345C757.524 448.275 757.81 448.156 758.117 448.056L764.595 463.577C761.266 465.234 759.314 468.948 760.086 472.766C760.396 474.336 761.159 475.693 762.165 476.781L763.082 477.632C764.962 479.153 767.466 479.874 770.021 479.362C771.701 479.029 773.166 478.202 774.3 477.065L794.531 495.29C793.939 496.189 793.685 497.318 793.911 498.461C794.257 500.201 795.638 501.458 797.278 501.766L796.612 521.036C796.542 521.049 796.482 521.041 796.413 521.053C794.494 521.434 793.243 523.315 793.634 525.234C794.026 527.162 795.906 528.393 797.815 528.012C799.733 527.621 800.974 525.75 800.593 523.831C800.298 522.41 799.194 521.354 797.854 521.067L798.52 501.796C798.64 501.782 798.76 501.788 798.869 501.765C800.828 501.372 802.185 499.678 802.244 497.765L820.006 495.688C820.531 497.412 822.287 498.507 824.086 498.14C826.015 497.748 827.256 495.877 826.865 493.959C826.473 492.04 824.603 490.799 822.684 491.191C821.074 491.512 819.957 492.888 819.857 494.452L802.094 496.529C801.516 494.407 799.392 493.064 797.205 493.504C796.509 493.646 795.889 493.966 795.373 494.392L775.09 476.119C776.472 474.264 777.106 471.873 776.608 469.438C775.682 464.875 771.236 461.925 766.673 462.841C766.344 462.901 766.048 463.031 765.751 463.13L759.274 447.609C762.603 445.952 764.565 442.237 763.783 438.42C763.735 438.162 763.627 437.925 763.549 437.668L818.654 411.529C820.139 413.852 822.522 415.487 825.23 416.011L823.328 431.34C822.887 431.334 822.428 431.369 821.981 431.463C818.581 432.152 816.396 435.463 817.074 438.853C817.762 442.243 821.064 444.448 824.464 443.76C827.854 443.071 830.059 439.76 829.371 436.36C828.872 433.884 826.963 432.064 824.644 431.518L826.546 416.17C827.388 416.213 828.247 416.175 829.112 415.997C831.319 415.547 833.213 414.406 834.604 412.841L876.566 444.23C875.53 445.964 875.087 448.059 875.525 450.196C876.441 454.759 880.898 457.719 885.47 456.793C885.878 456.71 886.263 456.557 886.649 456.425L902.965 489.942C900.928 491.318 899.817 493.824 900.339 496.379C900.768 498.527 902.251 500.18 904.137 500.94L896.514 527.026C895.981 526.943 895.43 526.931 894.864 527.049C892.319 527.561 890.667 530.054 891.179 532.609C891.7 535.164 894.184 536.816 896.739 536.294C899.294 535.782 900.945 533.288 900.424 530.734C900.104 529.183 899.055 527.966 897.705 527.368L905.328 501.283C906.103 501.428 906.914 501.442 907.729 501.276C909.926 500.836 911.607 499.272 912.345 497.327L937.026 503.844C936.961 504.336 936.958 504.847 937.064 505.364C937.576 507.909 940.069 509.56 942.614 509.048C945.169 508.537 946.821 506.043 946.309 503.498C945.798 500.943 943.294 499.292 940.749 499.803C939.159 500.134 937.903 501.234 937.327 502.634L912.667 496.116C912.784 495.392 912.79 494.641 912.636 493.886C911.947 490.486 908.636 488.29 905.246 488.979C905.017 489.026 904.81 489.113 904.582 489.18L888.255 455.653C891.149 453.84 892.78 450.386 892.067 446.857C891.141 442.295 886.695 439.335 882.122 440.261C880.322 440.619 878.781 441.548 877.62 442.796L835.679 411.416C836.602 409.916 837.137 408.178 837.179 406.356L859.843 404.863C860.549 408.182 863.799 410.329 867.129 409.653C869.048 409.262 870.558 408.013 871.388 406.406L881.986 410.57C881.854 411.145 881.833 411.746 881.963 412.352C882.425 414.628 884.654 416.108 886.93 415.645C889.217 415.182 890.686 412.954 890.234 410.678C889.77 408.391 887.552 406.921 885.266 407.384C884.033 407.633 883.048 408.405 882.469 409.414L871.861 405.24C872.122 404.321 872.201 403.338 871.999 402.344C871.881 401.778 871.664 401.254 871.418 400.762L892.248 385.991C893.206 386.86 894.54 387.288 895.912 387.014C898.199 386.551 899.669 384.324 899.216 382.047C898.753 379.77 896.525 378.28 894.248 378.753C891.972 379.216 890.492 381.445 890.955 383.721C891.014 384.009 891.093 384.287 891.211 384.543L870.411 399.303C868.983 397.808 866.868 397.055 864.7 397.494C861.927 398.053 859.98 400.396 859.776 403.094L837.092 404.587C837.068 404.438 837.053 404.289 837.018 404.14C836.602 402.052 835.553 400.254 834.129 398.889L862.283 361.213C863.953 362.11 865.916 362.488 867.924 362.084C871.851 361.288 874.563 357.88 874.661 354.045L923.097 348.109C924.402 353.29 929.55 356.598 934.849 355.518C936.638 355.151 938.222 354.33 939.497 353.198L986.362 394.667C984.88 396.835 984.238 399.577 984.786 402.351C984.928 403.027 985.128 403.671 985.388 404.293L975.04 409.525C973.949 407.949 971.991 407.091 969.992 407.485C967.318 408.03 965.591 410.637 966.136 413.301C966.671 415.965 969.287 417.703 971.951 417.157C974.616 416.622 976.353 414.005 975.818 411.341C975.771 411.122 975.695 410.925 975.618 410.727L985.997 405.484C986.938 407.075 988.279 408.362 989.878 409.222L981.03 429.835C980.121 429.583 979.149 429.524 978.165 429.726C974.765 430.414 972.569 433.716 973.258 437.116C973.424 437.941 973.749 438.691 974.19 439.347L961.928 449.553C960.982 448.723 959.668 448.325 958.336 448.587C956.059 449.05 954.58 451.278 955.042 453.554C955.495 455.831 957.734 457.31 960.02 456.847C962.296 456.384 963.776 454.156 963.313 451.88C963.218 451.403 963.035 450.979 962.792 450.576L975.052 440.36C976.497 441.745 978.56 442.429 980.658 442.012C981.026 441.94 981.382 441.819 981.718 441.688L991.218 459.745C989.771 460.801 988.979 462.628 989.348 464.487C989.646 465.978 990.634 467.147 991.904 467.767L985.842 489.161C985.299 489.068 984.729 489.067 984.152 489.185C981.608 489.706 979.946 492.19 980.468 494.735C980.989 497.29 983.473 498.941 986.028 498.43C987.032 498.228 987.886 497.71 988.534 497.019L1012.55 514.773C1012.25 515.363 1012.13 516.057 1012.28 516.763C1012.62 518.443 1014.25 519.521 1015.93 519.188C1017.61 518.854 1018.7 517.208 1018.36 515.529C1018.03 513.848 1016.38 512.76 1014.71 513.104C1014.11 513.223 1013.6 513.519 1013.18 513.903L989.167 496.159C989.717 495.191 989.96 494.053 989.723 492.88C989.402 491.289 988.302 490.043 986.893 489.458L992.937 468.154C993.582 468.304 994.243 468.333 994.929 468.191C997.474 467.68 999.135 465.185 998.614 462.631C998.102 460.086 995.609 458.435 993.054 458.946C992.835 458.993 992.627 459.07 992.42 459.146L982.919 441.08C984.966 439.704 986.097 437.187 985.575 434.632C985.218 432.853 984.122 431.417 982.683 430.542L991.531 409.94C993.129 410.469 994.894 410.603 996.664 410.246C998.513 409.867 1000.13 409.005 1001.43 407.823L1007.41 413.586C1006.48 414.696 1006.03 416.181 1006.34 417.702C1006.87 420.366 1009.47 422.094 1012.13 421.549C1014.8 421.014 1016.51 418.418 1015.98 415.754C1015.43 413.09 1012.85 411.371 1010.18 411.906C1009.52 412.038 1008.91 412.307 1008.38 412.664L1002.35 406.854C1003.94 404.962 1004.81 402.513 1004.71 399.935L1078.89 387.415C1079.68 390.191 1081.58 392.402 1084 393.635L1071.41 426.273C1070.18 425.942 1068.89 425.853 1067.57 426.116C1063 427.041 1060.05 431.488 1060.98 436.06C1061.21 437.194 1061.65 438.22 1062.26 439.121L1051.4 448.281C1050.05 447.104 1048.2 446.523 1046.31 446.903C1043.08 447.556 1041 450.704 1041.65 453.925C1042.16 456.5 1044.28 458.324 1046.74 458.635L1046.38 475.935C1046.25 475.95 1046.11 475.954 1045.98 475.978C1043.44 476.49 1041.78 478.974 1042.3 481.528C1042.81 484.083 1045.3 485.735 1047.86 485.213C1050.4 484.692 1052.05 482.208 1051.54 479.653C1051.14 477.665 1049.53 476.245 1047.64 475.946L1048 458.655C1048.23 458.638 1048.45 458.631 1048.68 458.583C1051.91 457.93 1053.99 454.793 1053.35 451.561C1053.21 450.856 1052.93 450.224 1052.57 449.645L1063.43 440.485C1065.36 442.324 1068.12 443.236 1070.93 442.666C1072.07 442.44 1073.11 441.987 1074.01 441.368L1093.28 464.026C1091.32 465.959 1090.33 468.812 1090.92 471.704C1091.63 475.213 1094.43 477.755 1097.76 478.32L1093 514.34C1092.65 514.341 1092.3 514.362 1091.94 514.434C1089.17 514.992 1087.37 517.701 1087.93 520.474C1088.49 523.248 1091.2 525.052 1093.97 524.484C1094.82 524.317 1095.56 523.923 1096.18 523.413L1117.94 544.29C1117.53 544.944 1117.34 545.75 1117.51 546.555C1117.85 548.235 1119.49 549.324 1121.17 548.98C1122.85 548.636 1123.94 547.001 1123.59 545.321C1123.25 543.651 1121.61 542.562 1119.93 542.896C1119.52 542.979 1119.13 543.152 1118.79 543.383L1097.04 522.515C1097.89 521.387 1098.28 519.925 1097.97 518.444C1097.57 516.465 1096.07 514.992 1094.24 514.51L1099 478.44C1099.61 478.451 1100.23 478.411 1100.84 478.292C1105.13 477.425 1107.96 473.442 1107.52 469.174L1122.22 466.594C1122.95 468.862 1125.25 470.28 1127.63 469.794C1130.17 469.273 1131.82 466.789 1131.31 464.234C1130.8 461.689 1128.31 460.037 1125.75 460.549C1123.45 461.013 1121.89 463.083 1121.99 465.361L1107.31 467.95C1106.21 463.623 1101.91 460.858 1097.49 461.76C1096.44 461.973 1095.51 462.384 1094.66 462.921L1075.34 440.195C1077.17 438.266 1078.07 435.526 1077.5 432.722C1076.98 430.108 1075.27 428.061 1073.07 426.93L1085.66 394.312C1087.21 394.783 1088.88 394.89 1090.58 394.546C1092.44 394.166 1094.07 393.294 1095.38 392.092L1159.48 447.058C1158.06 449.204 1157.45 451.885 1158.01 454.608C1159.1 460.056 1164.43 463.578 1169.88 462.474C1174.12 461.608 1177.19 458.189 1177.82 454.137L1237.52 455.875C1237.55 456.105 1237.54 456.315 1237.58 456.544C1238.51 461.106 1242.96 464.056 1247.52 463.141C1247.67 463.106 1247.79 463.042 1247.93 463.017L1257.54 488.704C1255.71 489.773 1254.67 491.918 1255.11 494.115C1255.39 495.556 1256.27 496.729 1257.43 497.442L1244.01 531.087C1243.05 530.847 1242.03 530.78 1241 530.992C1237.33 531.73 1234.94 535.318 1235.69 539.006C1235.71 539.115 1235.75 539.204 1235.79 539.313L1211.35 549.057C1210.25 547.291 1208.15 546.287 1205.98 546.727C1203.2 547.285 1201.41 549.994 1201.98 552.767C1202.54 555.54 1205.25 557.335 1208.02 556.766C1210.79 556.208 1212.59 553.499 1212.03 550.726C1212.03 550.716 1212.03 550.706 1212.02 550.706L1236.45 540.963C1237.86 543.469 1240.74 544.918 1243.71 544.323C1247.39 543.576 1249.78 539.988 1249.03 536.31C1248.61 534.292 1247.34 532.691 1245.67 531.754L1259.1 498.109C1259.76 498.238 1260.45 498.256 1261.16 498.114C1262.7 497.795 1263.93 496.805 1264.63 495.512L1299.56 507.085C1299.4 507.92 1299.39 508.811 1299.58 509.706C1300.32 513.384 1303.91 515.771 1307.58 515.033C1307.9 514.963 1308.19 514.854 1308.5 514.734L1320.17 537.524C1318.66 538.672 1317.83 540.62 1318.23 542.608C1318.79 545.382 1321.5 547.176 1324.28 546.617C1327.05 546.059 1328.84 543.35 1328.27 540.577C1327.72 537.803 1325.02 536.009 1322.23 536.578C1322.07 536.613 1321.92 536.678 1321.76 536.723L1310.09 513.953C1312.25 512.453 1313.45 509.764 1312.89 507.01C1312.86 506.901 1312.82 506.812 1312.8 506.713L1337.41 496.924C1338.51 498.699 1340.61 499.703 1342.78 499.264C1345.55 498.705 1347.34 496.007 1346.79 493.223C1346.22 490.44 1343.52 488.655 1340.74 489.214C1337.97 489.772 1336.17 492.481 1336.73 495.254C1336.74 495.264 1336.75 495.264 1336.75 495.274L1312.13 505.053C1310.72 502.547 1307.85 501.098 1304.87 501.703C1302.72 502.132 1301.02 503.566 1300.13 505.406L1265.17 493.824C1265.25 493.251 1265.27 492.67 1265.15 492.074C1264.6 489.33 1261.94 487.554 1259.2 488.061L1249.59 462.384C1252.91 460.718 1254.86 457.013 1254.09 453.196C1253.76 451.526 1252.93 450.082 1251.82 448.947L1291.59 395.832C1293.63 396.998 1296.09 397.47 1298.57 396.96C1300.45 396.58 1302.1 395.687 1303.41 394.475L1322.91 412.103C1321.75 413.74 1321.22 415.828 1321.65 417.945C1322.34 421.325 1325.19 423.676 1328.47 423.932L1329.86 457.644C1329.8 457.656 1329.74 457.648 1329.68 457.66C1326.01 458.408 1323.63 461.985 1324.37 465.664C1325.1 469.342 1328.69 471.719 1332.37 470.981C1336.05 470.234 1338.43 466.656 1337.69 462.968C1337.07 459.956 1334.55 457.845 1331.63 457.578L1330.24 423.855C1330.33 423.842 1330.44 423.849 1330.54 423.826C1333.61 423.207 1335.86 420.794 1336.43 417.905L1378.5 421.206C1378.52 421.496 1378.53 421.785 1378.58 422.074C1379.28 425.513 1382.64 427.737 1386.08 427.047C1389.52 426.347 1391.74 423.005 1391.04 419.556C1390.72 417.975 1389.82 416.663 1388.62 415.761L1397.36 399.904C1397.93 400.066 1398.55 400.117 1399.17 399.987C1401.28 399.559 1402.65 397.505 1402.23 395.397C1402.14 395 1401.99 394.634 1401.8 394.3L1421.54 376.472C1422.68 377.356 1424.18 377.768 1425.7 377.47C1427.79 377.043 1429.32 375.404 1429.71 373.43L1448.82 374.021C1448.84 374.221 1448.84 374.411 1448.88 374.61C1449.31 376.718 1451.36 378.083 1453.48 377.655C1455.58 377.228 1456.95 375.173 1456.52 373.066C1456.1 370.958 1454.04 369.593 1451.93 370.02C1450.45 370.318 1449.36 371.423 1448.97 372.786L1429.79 372.197C1429.78 371.947 1429.77 371.698 1429.72 371.449C1429.27 369.202 1427.39 367.621 1425.24 367.39L1425.75 347.553C1425.84 347.54 1425.92 347.547 1426 347.525C1428.12 347.097 1429.48 345.043 1429.06 342.925C1428.63 340.818 1426.58 339.453 1424.46 339.88C1422.35 340.308 1420.98 342.373 1421.41 344.48C1421.74 346.08 1423 347.25 1424.51 347.532L1424 367.409C1423.89 367.423 1423.79 367.416 1423.68 367.439C1420.9 368.008 1419.11 370.707 1419.67 373.48C1419.79 374.097 1420.04 374.669 1420.35 375.179L1400.62 392.997C1399.78 392.413 1398.71 392.157 1397.63 392.372C1396.99 392.502 1396.45 392.79 1395.97 393.165L1375.22 374.426C1376 373.311 1376.36 371.91 1376.07 370.468C1375.51 367.694 1372.8 365.899 1370.03 366.458C1367.78 366.91 1366.2 368.771 1365.97 370.94L1346.95 371.226C1346.94 371.196 1346.95 371.166 1346.94 371.136C1346.51 369.029 1344.44 367.654 1342.34 368.091C1340.22 368.519 1338.85 370.573 1339.29 372.691C1339.72 374.798 1341.77 376.163 1343.88 375.736C1345.54 375.403 1346.72 374.065 1346.95 372.487L1365.97 372.2C1365.98 372.31 1365.98 372.41 1366 372.52C1366.57 375.293 1369.27 377.088 1372.04 376.529C1372.94 376.35 1373.72 375.925 1374.36 375.365L1395.11 394.103C1394.58 394.931 1394.35 395.958 1394.56 396.992C1394.74 397.856 1395.19 398.593 1395.81 399.133L1387.06 414.95C1385.97 414.535 1384.76 414.403 1383.54 414.652C1381.01 415.163 1379.14 417.124 1378.6 419.502L1336.54 416.211C1336.51 415.811 1336.49 415.422 1336.42 415.024C1335.6 410.948 1331.61 408.303 1327.54 409.124C1326.2 409.396 1325.05 410.023 1324.1 410.854L1304.59 393.217C1306.27 390.992 1307.03 388.096 1306.43 385.164C1305.45 380.293 1301.1 376.97 1296.3 377.103L1289.2 330.315C1292.51 329.299 1294.81 326.404 1295.13 323.053L1322 322.716C1322.01 322.846 1322.01 322.966 1322.03 323.095C1322.78 326.773 1326.36 329.151 1330.05 328.413C1330.85 328.247 1331.59 327.933 1332.25 327.522L1340.56 338.343C1339.99 339.031 1339.7 339.961 1339.89 340.916C1340.23 342.576 1341.85 343.654 1343.52 343.321C1345.18 342.988 1346.26 341.363 1345.92 339.703C1345.58 338.043 1343.97 336.964 1342.31 337.307C1342.06 337.355 1341.84 337.431 1341.62 337.538L1333.32 326.728C1335 325.173 1335.86 322.824 1335.36 320.419C1335.25 319.853 1335.05 319.328 1334.81 318.836L1362.07 300.998C1363.14 302.105 1364.74 302.674 1366.37 302.342C1368.3 301.95 1369.71 300.425 1370.06 298.593L1395.68 299.707C1395.7 299.727 1395.7 299.746 1395.7 299.776C1396.03 301.447 1397.65 302.515 1399.32 302.182C1400.98 301.849 1402.05 300.224 1401.72 298.564C1401.38 296.904 1399.76 295.825 1398.09 296.168C1396.92 296.406 1396.04 297.294 1395.74 298.384L1370.08 297.281C1370.07 297.121 1370.06 296.972 1370.04 296.813C1369.52 294.268 1367.04 292.616 1364.49 293.137C1361.94 293.649 1360.29 296.133 1360.81 298.677C1360.87 298.975 1360.97 299.252 1361.08 299.529L1333.82 317.367C1332.26 315.575 1329.83 314.623 1327.34 315.122C1324.39 315.717 1322.3 318.144 1321.97 320.976L1295.1 321.313C1295.06 321.084 1295.08 320.863 1295.03 320.634C1294.7 318.994 1293.9 317.579 1292.83 316.462L1323.12 277.227C1325.23 278.481 1327.79 279 1330.38 278.467C1335.93 277.349 1339.51 271.942 1338.39 266.395L1378.44 253.943C1378.46 253.982 1378.46 254.043 1378.48 254.082C1380.19 257.629 1384.45 259.134 1387.99 257.43C1389.2 256.852 1390.14 255.961 1390.83 254.929L1433.94 276.306C1433.49 277.761 1433.56 279.38 1434.26 280.858C1435.76 283.982 1439.52 285.303 1442.63 283.803C1445.76 282.303 1447.08 278.549 1445.58 275.435C1445.51 275.297 1445.42 275.18 1445.33 275.042L1477.12 250.477C1478.95 252.06 1481.61 252.515 1483.94 251.4C1487.06 249.9 1488.38 246.146 1486.89 243.032C1485.38 239.908 1481.63 238.587 1478.51 240.088C1475.38 241.588 1474.06 245.342 1475.56 248.456C1475.67 248.682 1475.83 248.897 1475.96 249.113L1444.24 273.636C1442.4 271.884 1439.62 271.333 1437.2 272.49C1436.14 273.004 1435.31 273.781 1434.7 274.701L1391.64 253.342C1392.23 251.622 1392.18 249.683 1391.33 247.919C1390.83 246.855 1390.07 246.008 1389.19 245.346L1402.52 222.19C1403.62 222.565 1404.87 222.535 1406.02 221.988C1408.33 220.884 1409.3 218.111 1408.2 215.795C1407.09 213.489 1404.32 212.508 1402 213.622C1399.69 214.726 1398.72 217.508 1399.83 219.814C1400.11 220.405 1400.51 220.903 1400.97 221.309L1387.65 244.455C1385.83 243.692 1383.72 243.659 1381.82 244.57C1378.87 245.985 1377.38 249.175 1377.91 252.249L1337.87 264.701C1337.19 262.962 1336.07 261.487 1334.66 260.371L1343.12 246.945C1344.27 247.388 1345.59 247.386 1346.79 246.818C1349.1 245.704 1350.07 242.941 1348.97 240.625C1347.86 238.319 1345.09 237.337 1342.78 238.451C1340.47 239.565 1339.5 242.338 1340.6 244.644C1340.86 245.176 1341.2 245.625 1341.61 246.003L1333.17 259.398C1331.61 258.557 1329.82 258.134 1327.97 258.203L1317.7 193.688C1322.07 192.428 1325.03 188.461 1325.11 184.027C1328.44 183.81 1331.69 183.597 1334.33 183.443C1334.34 183.472 1334.34 183.502 1334.34 183.532C1335 186.783 1338.17 188.893 1341.43 188.239C1344.69 187.575 1346.8 184.406 1346.14 181.145C1345.48 177.885 1342.31 175.784 1339.05 176.439C1336.42 176.972 1334.58 179.133 1334.28 181.663C1331.6 181.809 1328.31 182.024 1324.99 182.25C1324.96 182.101 1324.95 181.961 1324.92 181.812C1324.47 179.565 1323.3 177.641 1321.71 176.221L1351.08 137.105C1352.88 138.189 1355.05 138.65 1357.27 138.199C1361.34 137.379 1364.15 133.817 1364.22 129.823L1412.34 125.688L1412.34 125.698C1413.29 130.4 1417.87 133.446 1422.58 132.495C1424.13 132.175 1425.47 131.443 1426.58 130.467L1448.49 150.688C1447.61 151.977 1447.24 153.61 1447.57 155.26C1448.22 158.521 1451.4 160.631 1454.66 159.967C1457.92 159.303 1460.02 156.134 1459.37 152.873C1458.71 149.612 1455.54 147.503 1452.27 148.167C1451.3 148.368 1450.44 148.805 1449.72 149.399L1427.79 129.167C1429.23 127.26 1429.88 124.788 1429.38 122.263C1429.33 121.984 1429.22 121.738 1429.13 121.48L1476.65 102.407C1477.91 104.558 1480.42 105.798 1483.01 105.275C1485.12 104.848 1486.73 103.366 1487.45 101.482L1530.87 110.744C1530.83 111.315 1530.84 111.885 1530.96 112.472C1531.66 115.961 1535.06 118.224 1538.54 117.512C1542.03 116.801 1544.29 113.407 1543.58 109.918C1543.49 109.481 1543.37 109.065 1543.19 108.68L1595.34 80.254C1596.36 81.6224 1598.1 82.3671 1599.88 82.0102C1601.71 81.6418 1603.06 80.2083 1603.42 78.4958L1648.03 81.516C1648.04 81.6456 1648.05 81.7654 1648.07 81.8947C1648.49 83.9425 1650.48 85.2697 1652.53 84.8543C1654.58 84.4388 1655.91 82.4351 1655.5 80.3873C1655.19 78.316 1653.19 76.989 1651.14 77.4045Z" fill="#FFE781"/>
<circle r="16" transform="matrix(-1 0 0 1 1290 351)" fill="#FFE781"/>
<circle r="21.5" transform="matrix(-1 0 0 1 1087.5 345.5)" fill="#FFE781"/>
<circle r="17.5" transform="matrix(-1 0 0 1 932.501 346.5)" fill="#FFE781"/>
<circle r="8.5" transform="matrix(-1 0 0 1 1013.5 319.5)" fill="#FFE781"/>
<circle r="13.5" transform="matrix(-1 0 0 1 1348.5 179.5)" fill="#FFE781"/>
<circle r="18.5" transform="matrix(-1 0 0 1 1344.5 347.5)" fill="#FFE781"/>
<circle r="47" transform="matrix(-1 0 0 1 1428 384)" fill="#FEDD5C"/>
<circle r="18.5" transform="matrix(-1 0 0 1 1193.5 397.5)" fill="#FEDD5C"/>
<circle r="18" transform="matrix(-1 0 0 1 1351 396)" fill="#FEDD5C"/>
</g>
</svg>
