<?xml version="1.0" encoding="UTF-8" standalone="no"?>
<svg
   width="1458"
   height="401"
   viewBox="0 0 1458 401"
   fill="none"
   version="1.1"
   id="svg122"
   sodipodi:docname="graphene_01_reverse.svg"
   inkscape:version="1.2 (dc2aeda, 2022-05-15)"
   xmlns:inkscape="http://www.inkscape.org/namespaces/inkscape"
   xmlns:sodipodi="http://sodipodi.sourceforge.net/DTD/sodipodi-0.dtd"
   xmlns="http://www.w3.org/2000/svg"
   xmlns:svg="http://www.w3.org/2000/svg">
  <defs
     id="defs126">
    <inkscape:path-effect
       effect="fill_between_many"
       method="originald"
       linkedpaths="#path120,0,1|#path118,0,1|#path116,0,1|#path114,0,1|#path112,0,1|#path110,0,1|#path108,0,1|#path106,0,1|#path104,0,1|#path102,0,1|#path100,0,1|#path98,0,1|#path96,0,1|#path94,0,1|#path92,0,1|#path90,0,1|#path88,0,1|#path86,0,1|#path84,0,1|#path82,0,1|#path80,0,1|#path78,0,1|#path76,0,1|#path74,0,1|#path72,0,1|#path70,0,1|#path68,0,1|#path66,0,1|#path64,0,1|#path62,0,1|#path60,0,1|#path58,0,1|#path56,0,1|#path54,0,1|#path52,0,1|#path50,0,1|#path48,0,1|#path46,0,1|#path44,0,1|#path42,0,1|#path40,0,1|#path38,0,1|#path36,0,1|#path34,0,1|#path32,0,1|#path30,0,1|#path28,0,1|#path26,0,1|#path24,0,1|#path22,0,1|#path20,0,1|#path18,0,1|#path16,0,1|#path14,0,1|#path12,0,1|#path10,0,1|#path8,0,1|#path6,0,1|#path4,0,1|#path2,0,1|"
       id="path-effect287" />
  </defs>
  <sodipodi:namedview
     id="namedview124"
     pagecolor="#ffffff"
     bordercolor="#000000"
     borderopacity="0.25"
     inkscape:showpageshadow="2"
     inkscape:pageopacity="0.0"
     inkscape:pagecheckerboard="0"
     inkscape:deskcolor="#d1d1d1"
     showgrid="false"
     inkscape:zoom="0.58852868"
     inkscape:cx="729.78602"
     inkscape:cy="200.5"
     inkscape:window-width="1309"
     inkscape:window-height="456"
     inkscape:window-x="1982"
     inkscape:window-y="1328"
     inkscape:window-maximized="0"
     inkscape:current-layer="svg122" />
  <path
     inkscape:original-d="M 0,0"
     inkscape:path-effect="#path-effect287"
     d="M 0,0"
     id="path289"
     class="UnoptimicedTransforms" />
  <path
     d="M167.458 172.788C175.258 176.175 181.597 179.034 188.008 181.701C197.678 185.721 207.088 191.061 217.161 193.296C246.573 199.828 276.341 204.73 305.812 211.018C323.618 214.82 341.239 211.527 358.927 212.096C359.048 211.556 359.168 211.026 359.289 210.486C352.741 206.627 346.331 202.522 339.614 199.006C335.109 196.655 330.306 194.452 325.376 193.372C293.665 186.429 261.9 179.782 230.13 173.094C217.961 170.532 205.942 167.081 193.184 169.464C186.347 170.745 179.288 170.874 172.344 171.589C171.193 171.71 170.078 172.138 167.458 172.788Z"
     fill="black"
     id="path2"
     class="UnoptimicedTransforms" />
  <path
     d="M435.429 232.954C410.781 228.701 386.716 220.085 361.078 222.986C356.134 223.545 351.113 223.451 344.794 223.713C346.637 225.3 347.156 225.962 347.841 226.312C356.57 230.82 365.327 235.089 375.296 236.457C384.186 237.672 392.948 239.84 401.812 241.284C421.793 244.537 441.39 250.564 461.98 249.589C469.731 249.217 477.511 249.471 485.274 249.442C485.516 248.634 485.748 247.825 485.99 247.017C481.527 244.833 477.282 241.787 472.562 240.63C460.304 237.605 447.888 235.096 435.429 232.954Z"
     fill="black"
     id="path4"
     class="UnoptimicedTransforms" />
  <path
     d="M354.981 150.876C333.997 145.809 313.004 140.821 292.016 135.794C267.177 129.839 242.392 123.678 217.491 118.007C208.583 115.975 199.922 112.471 190.228 114.455C177.547 117.048 164.673 118.674 151.884 120.701C148.206 121.282 144.512 121.821 139.556 122.579C141.545 123.77 142.206 124.237 142.931 124.591C162.01 134.052 181.075 143.542 200.203 152.928C204.064 154.823 208 156.958 212.145 157.859C250.719 166.231 289.323 174.426 327.964 182.474C332.939 183.509 338.165 183.747 343.263 183.699C350.417 183.621 357.558 182.948 364.703 182.497C374.596 181.874 384.473 181.208 395.352 180.494C393.972 179.081 393.403 178.322 392.671 177.766C381.635 169.445 370.6 161.114 359.504 152.887C358.205 151.915 356.557 151.266 354.981 150.876Z"
     fill="black"
     id="path6"
     class="UnoptimicedTransforms" />
  <path
     d="M601.148 178.59C583.347 173.862 565.495 169.31 547.674 164.66C527.77 159.473 507.919 154.091 487.976 149.071C479.854 147.027 471.465 143.966 463.346 144.388C440.337 145.583 417.415 148.317 394.456 150.494C390.834 150.84 387.238 151.4 382.265 152.046C395.18 162.079 406.822 171.183 418.569 180.158C419.819 181.114 421.61 181.478 423.208 181.849C451.935 188.395 480.647 195.07 509.438 201.32C519.457 203.499 529.665 205.517 539.857 205.984C552.292 206.543 564.803 205.37 577.277 204.967C589.368 204.572 601.466 204.197 614.546 203.783C611.087 195.643 608.15 188.418 604.894 181.338C604.321 180.085 602.565 178.971 601.148 178.59Z"
     fill="black"
     id="path8"
     class="UnoptimicedTransforms" />
  <path
     d="M713.743 290.121C700.215 282.213 613.577 271.703 597.956 276.268C606.841 284.206 705.683 295.813 713.743 290.121Z"
     fill="black"
     id="path10"
     class="UnoptimicedTransforms" />
  <path
     d="M183.601 234.701C183.729 234.192 183.858 233.673 183.996 233.166C177.41 231.154 170.939 228.48 164.205 227.247C134.392 221.766 104.495 216.668 74.6251 211.513C72.5033 211.143 70.2754 211.445 67.2584 211.426C75.0015 218.339 173.125 237.463 183.601 234.701Z"
     fill="black"
     id="path12"
     class="UnoptimicedTransforms" />
  <path
     d="M542.345 256.986C559.05 259.848 575.727 263.04 592.539 265.04C602.906 266.271 613.501 265.576 623.993 265.704C629.229 265.762 634.467 265.72 639.8 265.729C639.915 260.347 636.818 259.162 633.171 258.398C610.198 253.569 587.234 248.651 564.246 243.871C559.703 242.925 555.073 241.825 550.47 241.812C536.693 241.77 527.906 241.867 514.496 241.867C510.906 241.867 503.406 241.812 498.906 241.812C503.603 246.74 508.638 250.703 514.374 251.683C523.722 253.292 532.996 255.386 542.345 256.986Z"
     fill="black"
     id="path14"
     class="UnoptimicedTransforms" />
  <path
     d="M716.624 237.261C691.778 231.637 667.043 225.482 642.242 219.641C635.459 218.04 628.579 215.773 621.731 215.734C603.265 215.631 584.785 216.553 566.317 217.104C560.238 217.283 554.167 217.573 546.757 217.873C553.187 225 556.905 232.273 566.838 233.868C584.087 236.632 601.073 241.016 618.19 244.589C627.628 246.561 637.088 249.501 646.61 249.842C669.402 250.655 692.247 250.116 715.066 250.339C718.997 250.38 720.774 249.343 721.082 245.191C721.373 241.279 721.972 238.469 716.624 237.261Z"
     fill="black"
     id="path16"
     class="UnoptimicedTransforms" />
  <path
     d="M45.1322 184.563C39.7957 183.608 34.0777 184.784 28.5403 184.984C28.9734 186.673 29.3985 187.275 29.9526 187.448C45.3491 192.266 60.4905 198.274 76.21 201.569C105.514 207.727 135.118 212.479 164.66 217.416C170.714 218.432 177.053 217.729 184.68 217.836C182.995 216.176 182.633 215.552 182.122 215.353C172.299 211.708 162.727 206.822 152.587 204.741C116.881 197.437 81.0109 190.961 45.1322 184.563Z"
     fill="black"
     id="path18"
     class="UnoptimicedTransforms" />
  <path
     d="M529.694 285.345C517.921 278.379 452.945 269.873 446.033 274.577C473.772 279.27 501.057 287.263 529.694 285.345Z"
     fill="black"
     id="path20"
     class="UnoptimicedTransforms" />
  <path
     d="M579.657 276.185C572.787 268.666 479.795 255.788 468.967 260.865C475.965 268.488 567.403 281.141 579.657 276.185Z"
     fill="black"
     id="path22"
     class="UnoptimicedTransforms" />
  <path
     d="M590.352 304.182C582.821 298.058 542.308 292.778 535.914 297.087C554.066 300.587 571.159 304.993 590.352 304.182Z"
     fill="black"
     id="path24"
     class="UnoptimicedTransforms" />
  <path
     d="M337.457 245.014C346.639 252.914 433.586 266.569 445.674 262.007C439.961 255.122 346.636 240.465 337.457 245.014Z"
     fill="black"
     id="path26"
     class="UnoptimicedTransforms" />
  <path
     d="M1053.79 265.954C1048.86 264.572 1043.8 262.723 1038.78 262.658C1004.16 262.21 969.524 262.464 934.905 261.845C925.354 261.672 920.145 267.876 912.348 272.662C914.922 273.486 916.252 274.008 917.633 274.345C931.704 277.796 945.762 281.276 959.859 284.599C964.054 285.586 968.343 286.644 972.615 286.775C1001.91 287.688 1031.2 288.391 1060.51 289.044C1063.45 289.104 1066.51 288.676 1069.34 287.858C1077.01 285.635 1084.59 283.11 1092.19 280.646C1093.43 280.243 1094.57 279.517 1096.91 278.372C1081.6 273.946 1067.72 269.863 1053.79 265.954Z"
     fill="black"
     id="path28"
     class="UnoptimicedTransforms" />
  <path
     d="M1259.41 327.077C1259.48 326.401 1259.57 325.717 1259.65 325.041C1250.59 322.911 1241.6 319.38 1232.45 318.89C1200.04 317.162 1167.57 316.191 1135.12 315.615C1127.38 315.476 1119.6 318.009 1111.85 319.307C1111.83 320.12 1111.82 320.934 1111.8 321.747C1121.79 323.761 1131.69 326.681 1141.79 327.589C1158.52 329.107 1175.37 329.46 1192.18 330.06C1210.27 330.715 1228.39 333.014 1246.43 329.113C1250.7 328.197 1255.07 327.745 1259.41 327.077Z"
     fill="black"
     id="path30"
     class="UnoptimicedTransforms" />
  <path
     d="M539.895 230.775C533.291 224.111 529.859 216.901 520.651 215.025C495.85 209.99 471.235 204.1 446.521 198.652C430.162 195.043 414.014 190.462 396.802 192.724C384.676 194.323 372.33 194.298 360.085 194.998C359.951 195.466 359.818 195.934 359.686 196.392C367.348 200.991 374.936 205.712 382.701 210.111C385.396 211.644 388.455 212.804 391.493 213.439C412.354 217.818 433.247 222.08 454.151 226.253C463.944 228.204 473.728 230.678 483.625 231.443C494.539 232.284 505.589 231.479 516.577 231.321C523.803 231.221 531.045 230.993 539.895 230.775Z"
     fill="black"
     id="path32"
     class="UnoptimicedTransforms" />
  <path
     d="M1222.65 341.362C1195.22 339.833 1167.77 338.565 1140.32 337.457C1136.01 337.282 1131.65 338.35 1127.33 338.848C1127.35 339.354 1127.37 339.869 1127.41 340.376C1138.72 346.475 1229.42 350.59 1240.27 344.55C1233.51 343.283 1228.12 341.658 1222.65 341.362Z"
     fill="black"
     id="path34"
     class="UnoptimicedTransforms" />
  <path
     d="M1138.35 354.283C1146.22 359.278 1218.12 362.961 1223.4 358.837C1195.11 356.065 1166.77 354.272 1138.35 354.283Z"
     fill="black"
     id="path36"
     class="UnoptimicedTransforms" />
  <path
     d="M313.563 247.096C310.321 245.773 307.189 243.84 303.818 243.207C275.154 237.887 246.456 232.693 217.728 227.757C213.226 226.987 208.467 227.698 203.834 227.728C213.8 235.898 300.204 251.414 313.021 248.514C313.195 248.04 313.379 247.568 313.563 247.096Z"
     fill="black"
     id="path38"
     class="UnoptimicedTransforms" />
  <path
     d="M830.484 239.283C799.687 238.854 768.881 239.762 738.083 239.785C732.105 239.794 733.185 243.68 732.41 246.984C731.554 250.641 733.192 251.994 736.591 252.73C751.405 255.933 766.157 259.42 780.969 262.643C790.555 264.732 800.143 267.788 809.837 268.208C834.781 269.305 859.801 268.669 884.754 269.776C894.828 270.22 900.452 264.263 908.187 258.867C905.677 258.01 904.186 257.399 902.642 256.993C887.348 252.961 872.071 248.861 856.738 244.996C848.029 242.804 839.265 239.409 830.484 239.283Z"
     fill="black"
     id="path40"
     class="UnoptimicedTransforms" />
  <path
     d="M727.606 291.033C727.517 291.466 727.419 291.887 727.33 292.32C727.968 292.734 728.546 293.404 729.235 293.542C746.869 296.993 764.385 301.487 782.184 303.477C800.649 305.543 819.386 305.203 838.007 305.797C839.842 305.854 841.693 305.056 843.54 304.651C805.499 291.116 766.562 290.945 727.606 291.033Z"
     fill="black"
     id="path42"
     class="UnoptimicedTransforms" />
  <path
     d="M1081.88 229.959C1057.33 221.802 1032.78 213.655 1008.21 205.567C1006.56 205.028 1004.74 204.721 1003.01 204.758C988.27 205.096 973.536 205.555 958.799 205.943C929.457 206.715 900.11 207.446 870.761 208.277C868.004 208.358 864.142 207.982 862.706 209.561C857.077 215.738 852.225 222.607 846.762 229.639C848.544 230.343 849.409 230.793 850.337 231.039C868.358 235.791 886.371 240.603 904.429 245.209C912.792 247.341 921.227 250.538 929.686 250.749C960.789 251.495 991.909 251.195 1023.02 251.257C1033.28 251.279 1043.37 251.644 1053.01 246.252C1062.93 240.711 1073.66 236.568 1084.8 231.456C1083.26 230.669 1082.61 230.202 1081.88 229.959Z"
     fill="black"
     id="path44"
     class="UnoptimicedTransforms" />
  <path
     d="M720.595 261.026C702.136 260.692 683.661 260.679 665.192 260.606C661.29 260.587 657.381 260.8 653.414 260.905C654.052 265.949 654.774 266.956 658.526 267.773C664.055 268.981 669.61 270.051 675.162 271.151C691.156 274.326 707.018 278.855 723.175 280.328C744.341 282.266 765.729 281.793 787.013 282.335C790.605 282.429 792.951 280.903 793.76 276.687C792.005 276.187 790.473 275.672 788.912 275.324C770.568 271.209 752.227 267.065 733.851 263.057C729.489 262.111 725.034 261.105 720.595 261.026Z"
     fill="black"
     id="path46"
     class="UnoptimicedTransforms" />
  <path
     d="M643.449 297.247C616.723 290.988 590.04 284.341 562.152 287.562C588.901 293.531 615.621 299.76 643.449 297.247Z"
     fill="black"
     id="path48"
     class="UnoptimicedTransforms" />
  <path
     d="M333.146 233.185C333.321 232.521 333.496 231.866 333.671 231.202C326.259 228.221 319.079 224.17 311.38 222.475C288.463 217.421 265.361 213.191 242.306 208.826C226.492 205.832 210.791 201.392 194.397 204.16C192.427 204.491 190.432 204.688 188.451 204.947C188.372 205.552 188.294 206.157 188.225 206.763C200.291 210.783 212.148 215.664 224.474 218.617C240.809 222.525 257.494 224.932 274.031 227.938C292.028 231.208 309.954 235.276 328.471 233.583C330.028 233.437 331.582 233.311 333.146 233.185Z"
     fill="black"
     id="path50"
     class="UnoptimicedTransforms" />
  <path
     d="M863.679 296.208C886.353 298.165 909.203 297.928 931.977 298.729C937.6 298.931 942.151 296.597 946.711 292.664C942.297 291.562 937.901 290.391 933.479 289.358C920.2 286.278 907.029 281.45 893.601 280.587C866.745 278.862 839.751 279.335 812.822 278.88C809.347 278.82 807.208 280.299 806.204 284.553C810.787 285.584 815.216 286.648 819.671 287.564C834.335 290.579 848.878 294.938 863.679 296.208Z"
     fill="black"
     id="path52"
     class="UnoptimicedTransforms" />
  <path
     d="M1044.44 298.782C1021.32 299.18 998.167 297.783 975.035 297.122C969.408 296.96 964.557 298.656 958.88 303.117C973.788 306.29 987.138 310.606 1000.74 311.699C1026.95 313.814 1053.29 314.475 1079.6 314.91C1086.96 315.027 1094.37 312.261 1101.76 310.811C1101.69 310.25 1101.62 309.678 1101.55 309.117C1100.32 308.676 1099.11 308.138 1097.85 307.804C1080.34 303.129 1063 298.463 1044.44 298.782Z"
     fill="black"
     id="path54"
     class="UnoptimicedTransforms" />
  <path
     d="M14.399 163.903C25.4688 167.468 36.3281 172.006 47.6496 174.412C73.8494 179.987 100.276 184.442 126.581 189.536C143.914 192.893 161.208 196.325 178.992 193.544C180.15 193.363 181.288 193.089 182.431 192.855C176.287 189.163 170.153 186.266 163.835 183.841C152.376 179.448 141.074 174.286 129.231 171.329C109.713 166.467 89.8287 163.074 70.0885 159.114C50.5149 155.192 30.9258 151.319 11.3478 147.437L9.65192 162.452C11.2391 162.923 12.8251 163.404 14.399 163.903Z"
     fill="black"
     id="path56"
     class="UnoptimicedTransforms" />
  <path
     d="M109.467 155.993C122.261 158.465 134.763 163.157 148.281 161.082C158.359 159.533 168.584 158.906 180.232 157.706C177.904 156.226 176.922 155.471 175.835 154.935C160.594 147.498 145.363 140.051 130.083 132.69C119.928 127.799 109.923 122.825 98.56 120.696C81.4412 117.494 64.5442 113.13 47.5302 109.357C37.1726 107.06 26.7759 104.93 16.3971 102.731L12.5811 136.516C44.8728 143.042 77.1232 149.754 109.467 155.993Z"
     fill="black"
     id="path58"
     class="UnoptimicedTransforms" />
  <path
     d="M35.6293 201.896C35.7684 201.288 35.9086 200.67 36.0478 200.061C26.1651 197.124 16.2813 194.196 6.39854 191.258L5.62525 198.105C15.5729 199.933 25.388 203.024 35.6293 201.896Z"
     fill="black"
     id="path60"
     class="UnoptimicedTransforms" />
  <path
     d="M49.2182 36.6673C40.9357 34.8865 32.7881 32.4466 24.5815 30.2617L17.8485 89.8727C22.3399 91.004 26.8247 92.1948 31.3472 93.2289C48.1688 97.1014 64.9837 101.033 81.8588 104.701C97.4566 108.093 112.894 113.882 129.261 108.595C131.611 107.834 134.157 107.659 136.619 107.243C147.814 105.337 159.017 103.443 171.474 101.327C169.192 99.872 168.037 99.0571 166.818 98.3558C137.762 81.8002 108.582 65.4619 79.7 48.6139C70.0507 42.9854 60.0661 38.9895 49.2182 36.6673Z"
     fill="black"
     id="path62"
     class="UnoptimicedTransforms" />
  <path
     d="M53.9319 221.514C54.0291 220.921 54.135 220.34 54.2322 219.747C38.1975 213.628 21.5143 210.134 4.50845 207.982L3.94279 212.99C20.6084 215.838 37.2652 218.676 53.9319 221.514Z"
     fill="black"
     id="path64"
     class="UnoptimicedTransforms" />
  <path
     d="M395.851 77.4493C386.605 74.664 377.259 72.2297 367.967 69.5901C309.979 53.1178 251.996 36.6057 193.995 20.1621C187.666 18.3704 181.615 16.6102 174.565 18.6216C152.635 24.8698 130.459 30.275 108.393 36.0348C105.749 36.7224 103.164 37.5979 99.8516 38.5924C101.633 39.9307 102.611 40.806 103.711 41.4838C130.912 58.2426 158.101 75.0202 185.353 91.6841C190.87 95.0545 196.302 99.2608 202.366 100.902C223.788 106.723 245.469 111.587 267.048 116.822C291.732 122.81 316.392 128.916 341.117 134.718C349.127 136.599 357.409 139.185 365.425 138.782C384.635 137.812 403.76 135.282 422.919 133.34C431.267 132.492 439.616 131.543 448.46 130.58C447.815 129.43 447.604 128.802 447.2 128.374C432.396 112.603 417.637 96.7967 402.686 81.17C400.966 79.3856 398.303 78.1892 395.851 77.4493Z"
     fill="black"
     id="path66"
     class="UnoptimicedTransforms" />
  <path
     d="M733.824 174.696C708.798 175.391 683.806 177.037 658.798 178.369C646.578 179.021 634.357 179.764 621.21 180.513C624.281 188.428 626.838 195.459 629.818 202.307C630.465 203.799 632.538 205.221 634.213 205.631C659.586 211.929 684.991 218.129 710.422 224.182C717.851 225.947 725.398 228.45 732.903 228.472C764.038 228.577 795.164 227.866 826.302 227.408C827.744 227.39 829.855 227.407 830.526 226.547C835.672 219.922 840.53 213.085 845.589 206.159C844.293 205.519 843.873 205.23 843.405 205.097C813.276 196.35 783.172 187.566 753.01 178.936C746.703 177.127 740.184 174.519 733.824 174.696Z"
     fill="black"
     id="path68"
     class="UnoptimicedTransforms" />
  <path
     d="M729.346 114.523C674.235 96.7256 619.175 78.7523 564.053 60.9633C561.179 60.0349 557.78 59.9227 554.762 60.3567C526.268 64.4042 497.793 68.6351 469.322 72.8362C456.181 74.7736 443.054 76.7729 428.989 78.8776C430.393 80.8778 431.155 82.1514 432.085 83.2729C442.843 96.1919 453.944 108.838 464.25 122.108C469.205 128.485 474.584 133.077 482.707 134.045C484.017 134.203 485.335 134.473 486.616 134.809C522.175 144.3 557.727 153.86 593.318 163.244C600.003 165.005 606.92 167.377 613.647 167.16C637.678 166.373 661.686 164.616 685.7 163.172C700.564 162.285 715.417 161.306 729.881 160.393C731.368 147.227 732.597 134.474 734.351 121.801C734.97 117.302 733.297 115.805 729.346 114.523Z"
     fill="black"
     id="path70"
     class="UnoptimicedTransforms" />
  <path
     d="M1376.72 381.216C1376.76 381.854 1376.8 382.502 1376.83 383.141C1395.4 384.221 1413.96 385.301 1432.51 386.37L1432.85 383.389C1416.22 382.477 1399.59 381.534 1382.96 380.683C1380.89 380.589 1378.8 381.028 1376.72 381.216Z"
     fill="black"
     id="path72"
     class="UnoptimicedTransforms" />
  <path
     d="M61.4292 234.518C61.5653 233.758 61.7013 232.999 61.8374 232.239C42.4028 227.8 22.5716 225.359 2.93087 221.943L2.59529 224.914C22.2099 228.116 41.8146 231.316 61.4292 234.518Z"
     fill="black"
     id="path74"
     class="UnoptimicedTransforms" />
  <path
     d="M1433.76 309.102C1406.32 308.337 1378.86 307.561 1351.41 306.935C1338.94 306.654 1326.39 305.709 1314.03 306.86C1299.99 308.163 1286.14 311.439 1272.21 313.911C1271.09 314.107 1270.06 314.734 1268.98 315.166C1268.98 315.771 1268.99 316.365 1268.98 316.968C1279.79 319.205 1290.51 322.579 1301.42 323.439C1323.14 325.148 1344.97 325.481 1366.76 326.382C1391.04 327.393 1415.32 329.048 1439.47 324.762L1441.15 309.857C1438.69 309.598 1436.23 309.18 1433.76 309.102Z"
     fill="black"
     id="path76"
     class="UnoptimicedTransforms" />
  <path
     d="M691.679 314.227C674.79 308.817 657.634 305.763 639.833 308.16C656.763 313.121 673.897 316.455 691.679 314.227Z"
     fill="black"
     id="path78"
     class="UnoptimicedTransforms" />
  <path
     d="M1417.62 195.312C1381.91 205.176 1346.45 215.975 1310.92 226.463C1308.66 227.134 1306.47 228.044 1303.03 229.286C1321.38 236.883 1338.34 243.981 1355.39 250.869C1357.74 251.818 1360.5 251.999 1363.08 252.049C1373.03 252.207 1382.99 252.185 1392.95 252.203C1411.19 252.23 1429.43 252.227 1447.66 252.243L1454.28 193.616C1450.81 193.556 1447.31 193.312 1443.85 193.485C1435.08 193.893 1425.91 193.028 1417.62 195.312Z"
     fill="black"
     id="path80"
     class="UnoptimicedTransforms" />
  <path
     d="M940.958 103.654C938.432 102.675 935.41 102.343 932.688 102.569C873.977 107.642 815.281 112.857 756.57 117.94C753.307 118.226 751.96 119.462 751.459 122.646C749.382 135.605 747.097 148.53 744.839 161.75C745.871 162.229 746.295 162.488 746.752 162.63C778.39 172 810.025 181.4 841.693 190.683C848.365 192.645 855.183 195.81 861.882 195.661C907.97 194.617 954.049 192.857 1000.12 191.228C1001.97 191.165 1004.05 190.394 1005.56 189.307C1017.6 180.673 1029.54 171.917 1041.47 163.141C1047.04 159.041 1052.55 154.832 1058.61 150.283C1056.68 149.331 1055.57 148.682 1054.37 148.205C1016.58 133.319 978.801 118.415 940.958 103.654Z"
     fill="black"
     id="path82"
     class="UnoptimicedTransforms" />
  <path
     d="M1435.54 359.541L1436.21 353.579C1427.14 354.125 1418.06 354.679 1408.99 355.225C1413.44 359.129 1426.46 360.67 1435.54 359.541Z"
     fill="black"
     id="path84"
     class="UnoptimicedTransforms" />
  <path
     d="M1386.64 372.132C1402.38 372.904 1418.12 373.674 1433.86 374.446L1434.42 369.478C1418.43 368.306 1402.47 367.73 1386.63 370.42C1386.64 370.995 1386.63 371.568 1386.64 372.132Z"
     fill="black"
     id="path86"
     class="UnoptimicedTransforms" />
  <path
     d="M1442.77 264.683C1424 264.547 1405.25 264.311 1386.5 264.386C1374.73 264.435 1362.74 263.625 1351.25 265.568C1331.6 268.883 1312.26 274.055 1292.8 278.469C1289.05 279.324 1285.34 280.323 1281.6 281.259C1281.59 281.691 1281.58 282.113 1281.57 282.545C1289.54 285.246 1297.43 288.16 1305.49 290.57C1312.13 292.558 1318.91 295.095 1325.71 295.4C1350.65 296.506 1375.64 296.822 1400.6 297.348C1414.56 297.636 1428.53 297.754 1442.49 297.943L1446.2 265.151C1445.06 264.982 1443.91 264.692 1442.77 264.683Z"
     fill="black"
     id="path88"
     class="UnoptimicedTransforms" />
  <path
     d="M973.351 317.452C958.9 310.677 884.185 303.134 864.779 306.366C863.64 306.559 862.6 307.307 861.092 308.003C875.327 315.89 964.952 323.386 973.351 317.452Z"
     fill="black"
     id="path90"
     class="UnoptimicedTransforms" />
  <path
     d="M991.9 335.95C983.565 330.178 915.166 324.455 908.248 328.584C936.112 336.361 964.148 334.586 991.9 335.95Z"
     fill="black"
     id="path92"
     class="UnoptimicedTransforms" />
  <path
     d="M899.743 338.039C892.963 332.312 851.72 328.68 844.145 332.756C862.471 338.187 880.516 337.196 899.743 338.039Z"
     fill="black"
     id="path94"
     class="UnoptimicedTransforms" />
  <path
     d="M1005.36 347.575C985.215 342.925 966.005 343.271 946.779 343.223C952.132 347.5 998.656 351.065 1005.36 347.575Z"
     fill="black"
     id="path96"
     class="UnoptimicedTransforms" />
  <path
     d="M759.435 310.317C747.921 303.733 685.781 297.117 677.991 301.581C705.117 308.489 732.052 311.481 759.435 310.317Z"
     fill="black"
     id="path98"
     class="UnoptimicedTransforms" />
  <path
     d="M1105.93 331.048C1103.26 330.223 1101.76 329.732 1100.26 329.301C1088.19 325.774 1075.84 324.52 1063.28 324.188C1044.31 323.675 1025.36 322.592 1006.4 321.939C1002.7 321.813 998.975 322.51 995.255 322.834C1007.09 331.225 1093.41 337.131 1105.93 331.048Z"
     fill="black"
     id="path100"
     class="UnoptimicedTransforms" />
  <path
     d="M876.227 322.845C863.718 315.444 801.4 311.384 793.962 314.781C805.121 320.056 864.474 326.036 876.227 322.845Z"
     fill="black"
     id="path102"
     class="UnoptimicedTransforms" />
  <path
     d="M795.763 326.466C789.021 320.583 748.888 316.482 742.345 320.856C759.876 326.116 777.342 326.69 795.763 326.466Z"
     fill="black"
     id="path104"
     class="UnoptimicedTransforms" />
  <path
     d="M1328.2 256.634C1309.5 249.188 1292.11 242.242 1274.7 235.345C1273.98 235.062 1273.13 235.006 1272.35 235.008C1256.26 235.043 1240.17 235.027 1224.08 235.172C1195.37 235.432 1166.66 235.691 1137.95 236.151C1123.31 236.38 1108.52 234.709 1094.72 242.469C1085.68 247.547 1075.74 251.033 1066.2 255.23C1066.24 255.697 1066.28 256.154 1066.32 256.621C1079.08 260.367 1091.8 264.239 1104.6 267.819C1111.95 269.866 1119.39 272.78 1126.84 272.998C1164.63 274.076 1202.44 274.421 1240.25 274.938C1245.22 275.006 1250.35 275.305 1255.14 274.245C1277.88 269.196 1300.53 263.713 1323.21 258.354C1324.49 258.036 1325.73 257.492 1328.2 256.634Z"
     fill="black"
     id="path106"
     class="UnoptimicedTransforms" />
  <path
     d="M1107.25 346.745C1079.53 340.635 1051.23 342.098 1023.13 340.554C1030.23 345.905 1101.85 351.035 1107.25 346.745Z"
     fill="black"
     id="path108"
     class="UnoptimicedTransforms" />
  <path
     d="M1288.44 298.575C1276.68 294.681 1266.33 291.187 1255.93 287.848C1253.27 286.994 1250.45 286.203 1247.7 286.154C1209.76 285.411 1171.81 285.121 1133.89 284.007C1119.35 283.583 1106.69 289.469 1093.35 293.256C1093.04 293.342 1092.89 293.989 1092.4 294.809C1101 297.099 1109.3 299.415 1117.67 301.498C1123.47 302.937 1129.31 304.875 1135.19 305.167C1155.8 306.207 1176.43 306.927 1197.07 307.185C1215.64 307.42 1234.23 310.425 1252.77 305.979C1263.43 303.429 1274.35 302.016 1285.15 300.056C1285.75 299.942 1286.32 299.543 1288.44 298.575Z"
     fill="black"
     id="path110"
     class="UnoptimicedTransforms" />
  <path
     d="M1388.44 184.006C1387.33 183.227 1386.84 182.789 1386.27 182.493C1363.74 170.64 1341.24 158.719 1318.63 147.047C1315.97 145.681 1312.61 145.019 1309.61 145.133C1291.31 145.854 1273.03 146.898 1254.74 147.821C1200.54 150.526 1146.35 153.181 1092.17 156.047C1088.72 156.232 1085 157.522 1082.04 159.332C1070.43 166.483 1059.04 174.023 1047.61 181.467C1040.7 185.97 1033.86 190.562 1025.94 195.816C1048.7 203.559 1070.01 210.858 1091.37 218.05C1097.81 220.216 1104.29 223.676 1110.82 223.839C1131.53 224.347 1152.27 223.55 1172.99 223.293C1200.34 222.961 1227.7 222.76 1255.04 222.296C1263.13 222.163 1271.69 222.878 1279.19 220.535C1314.57 209.477 1349.67 197.49 1384.85 185.815C1385.98 185.429 1386.99 184.738 1388.44 184.006Z"
     fill="black"
     id="path112"
     class="UnoptimicedTransforms" />
  <path
     d="M1419.91 343.736C1419.97 343.15 1420.04 342.554 1420.11 341.967C1414.56 340.617 1409.07 338.325 1403.47 338.056C1367.42 336.328 1331.35 334.639 1295.26 333.834C1284.14 333.584 1272.96 336.146 1261.8 337.411C1261.76 337.991 1261.74 338.562 1261.7 339.141C1262.88 339.576 1264.03 340.25 1265.26 340.398C1276.43 341.781 1287.59 343.685 1298.81 344.269C1336.99 346.286 1375.17 350.085 1413.38 344.69C1415.56 344.382 1417.73 344.054 1419.91 343.736Z"
     fill="black"
     id="path114"
     class="UnoptimicedTransforms" />
  <path
     d="M1339.72 371.663C1310.45 369.816 1282.45 367.268 1254.25 367.857C1260.41 371.863 1332.89 374.907 1339.72 371.663Z"
     fill="black"
     id="path116"
     class="UnoptimicedTransforms" />
  <path
     d="M1108.38 358.918C1088.22 355.947 1067.93 354.933 1047.55 355.026C1052.87 358.827 1104.23 362.002 1108.38 358.918Z"
     fill="black"
     id="path118"
     class="UnoptimicedTransforms" />
  <path
     d="M1366.87 357.541C1346.26 356.35 1325.66 355.009 1305.02 354.249C1290.75 353.723 1276.45 354.01 1262.15 354.046C1260.37 354.046 1258.59 354.741 1255.93 355.296C1265.72 360.92 1366.65 364.248 1376.42 359.133C1372.5 358.458 1369.7 357.71 1366.87 357.541Z"
     fill="black"
     id="path120"
     class="UnoptimicedTransforms" />
</svg>
